<svg width="103" height="296" viewBox="0 0 103 296" fill="none" xmlns="http://www.w3.org/2000/svg">
<path d="M-1.28184e-05 295.548L17.0555 292.53L5.91389 279.268L-1.28184e-05 295.548ZM69.6749 1.5422C69.9185 2.17061 70.1608 2.79751 70.4018 3.42293L73.2012 2.34426C72.9594 1.71694 72.7164 1.08815 72.4721 0.457881L69.6749 1.5422ZM71.832 7.15763C72.3034 8.39663 72.7696 9.62975 73.2304 10.8571L76.039 9.80254C75.5765 8.57099 75.1088 7.33374 74.6358 6.09072L71.832 7.15763ZM74.6096 14.5562C75.076 15.8162 75.5366 17.07 75.9913 18.3178L78.81 17.2906C78.3534 16.0379 77.8911 14.7793 77.423 13.5148L74.6096 14.5562ZM77.338 22.0432C77.7832 23.285 78.2224 24.5208 78.6556 25.7506L81.4852 24.7539C81.0501 23.5187 80.6091 22.2777 80.1621 21.0309L77.338 22.0432ZM79.9768 29.5374C80.4108 30.7934 80.8383 32.0433 81.2593 33.2871L84.1009 32.3252C83.6779 31.0753 83.2483 29.8195 82.8123 28.5577L79.9768 29.5374ZM82.5078 37.0156C82.9305 38.2918 83.346 39.5617 83.7545 40.8252L86.6091 39.9024C86.1984 38.632 85.7806 37.3554 85.3557 36.0725L82.5078 37.0156ZM84.9584 44.597C85.3554 45.8572 85.7451 47.111 86.1275 48.3587L88.9958 47.4797C88.6111 46.2244 88.2191 44.963 87.8198 43.6956L84.9584 44.597ZM87.2836 52.1884C87.6611 53.4586 88.0308 54.7224 88.3925 55.9799L91.2756 55.1505C90.9114 53.8844 90.5392 52.6121 90.1592 51.3337L87.2836 52.1884ZM89.4681 59.7852C89.8258 61.0739 90.175 62.356 90.5154 63.6318L93.414 62.8582C93.0709 61.5726 92.7191 60.2809 92.3588 58.9828L89.4681 59.7852ZM91.5108 67.4399C91.8413 68.7321 92.1627 70.0177 92.4748 71.297L95.3893 70.5858C95.0745 69.2956 94.7504 67.9992 94.4172 66.6965L91.5108 67.4399ZM93.393 75.1568C93.6901 76.439 93.9775 77.7148 94.2554 78.9843L97.186 78.3429C96.9055 77.0613 96.6154 75.7736 96.3156 74.4797L93.393 75.1568ZM95.084 82.892C95.3499 84.188 95.6054 85.4775 95.8504 86.7608L98.7972 86.198C98.5495 84.9011 98.2913 83.5982 98.0228 82.2891L95.084 82.892ZM96.5648 90.6519C96.7955 91.9621 97.0149 93.2657 97.2231 94.563L100.185 94.0878C99.9746 92.7752 99.7526 91.4565 99.5193 90.1317L96.5648 90.6519ZM97.8141 98.4408C98.0048 99.7629 98.1834 101.078 98.3498 102.388L101.326 102.01C101.157 100.683 100.976 99.3509 100.783 98.0125L97.8141 98.4408ZM98.8122 106.297C98.9564 107.616 99.0879 108.928 99.2065 110.235L102.194 109.964C102.074 108.639 101.941 107.308 101.794 105.971L98.8122 106.297ZM99.5261 114.172C99.6201 115.488 99.7007 116.798 99.7677 118.101L102.764 117.947C102.696 116.623 102.614 115.294 102.518 113.958L99.5261 114.172ZM99.9299 122.057C99.9699 123.371 99.9958 124.678 100.007 125.981L103.007 125.954C102.995 124.63 102.969 123.3 102.929 121.966L99.9299 122.057ZM99.9984 129.943C99.9806 131.259 99.9477 132.569 99.8998 133.873L102.898 133.983C102.947 132.655 102.98 131.322 102.998 129.984L99.9984 129.943ZM99.7081 137.818C99.6284 139.132 99.533 140.441 99.4218 141.745L102.411 142C102.524 140.671 102.621 139.338 102.703 138L99.7081 137.818ZM99.0381 145.666C98.8936 146.974 98.7327 148.277 98.5554 149.576L101.528 149.982C101.709 148.657 101.873 147.329 102.02 145.996L99.0381 145.666ZM97.9727 153.468C97.7613 154.765 97.5331 156.058 97.288 157.348L100.235 157.908C100.485 156.593 100.718 155.274 100.934 153.951L97.9727 153.468ZM96.5019 161.205C96.223 162.486 95.927 163.764 95.6138 165.039L98.5272 165.755C98.8468 164.454 99.1487 163.15 99.4333 161.843L96.5019 161.205ZM94.6226 168.855C94.277 170.116 93.9142 171.375 93.534 172.631L96.4054 173.5C96.7932 172.218 97.1633 170.934 97.516 169.648L94.6226 168.855ZM92.3413 176.393C91.9304 177.632 91.5023 178.869 91.0569 180.105L93.8791 181.122C94.3333 179.863 94.7698 178.601 95.1888 177.337L92.3413 176.393ZM89.6711 183.799C89.1969 185.016 88.7056 186.232 88.1972 187.446L90.9643 188.605C91.4824 187.368 91.983 186.129 92.4663 184.889L89.6711 183.799ZM86.63 191.062C86.0949 192.257 85.543 193.451 84.974 194.644L87.6818 195.935C88.261 194.721 88.823 193.505 89.3679 192.289L86.63 191.062ZM83.2401 198.173C82.6467 199.347 82.0366 200.52 81.4096 201.693L84.0555 203.107C84.693 201.914 85.3136 200.721 85.9173 199.527L83.2401 198.173ZM79.5258 205.127C78.8817 206.272 78.2215 207.417 77.545 208.563L80.128 210.088C80.8151 208.925 81.4859 207.762 82.1405 206.598L79.5258 205.127ZM75.5114 211.927C74.8239 213.039 74.1209 214.152 73.4023 215.265L75.9229 216.892C76.6519 215.763 77.3653 214.634 78.0631 213.505L75.5114 211.927ZM71.22 218.577C70.4951 219.656 69.7555 220.735 69.0011 221.815L71.4605 223.533C72.225 222.438 72.9746 221.344 73.7096 220.251L71.22 218.577ZM66.6933 225.058C65.9301 226.111 65.1528 227.166 64.3612 228.222L66.7615 230.021C67.5627 228.953 68.3498 227.885 69.1227 226.818L66.6933 225.058ZM61.9661 231.364C61.1578 232.408 60.3356 233.453 59.4994 234.5L61.8431 236.372C62.6886 235.314 63.5202 234.257 64.3379 233.201L61.9661 231.364ZM57.0334 237.541C56.1982 238.556 55.3498 239.573 54.4881 240.592L56.7786 242.53C57.649 241.5 58.5062 240.473 59.3503 239.447L57.0334 237.541ZM51.9068 243.604C51.0538 244.586 50.1884 245.57 49.3106 246.555L51.5511 248.55C52.437 247.556 53.3105 246.562 54.1718 245.571L51.9068 243.604ZM46.6398 249.519C45.7586 250.485 44.8656 251.453 43.9605 252.423L46.1539 254.469C47.0666 253.491 47.9673 252.515 48.8562 251.54L46.6398 249.519ZM41.2568 255.289C40.344 256.246 39.4194 257.206 38.4832 258.168L40.6328 260.26C41.5762 259.291 42.5079 258.324 43.4281 257.359L41.2568 255.289ZM35.7158 260.982C34.7964 261.908 33.8662 262.837 32.9252 263.767L35.0343 265.9C35.9819 264.964 36.9187 264.029 37.8448 263.096L35.7158 260.982ZM30.0693 266.565C29.1292 267.477 28.1787 268.392 27.2178 269.309L29.289 271.48C30.2561 270.557 31.2127 269.636 32.159 268.717L30.0693 266.565ZM24.3585 272.016C23.3953 272.92 22.4219 273.827 21.4384 274.736L23.4747 276.939C24.4639 276.025 25.443 275.113 26.4121 274.203L24.3585 272.016ZM18.5021 277.43C17.5409 278.305 16.5702 279.182 15.5901 280.062L17.5941 282.295C18.5794 281.41 19.5553 280.528 20.5218 279.648L18.5021 277.43ZM12.6215 282.709C11.6225 283.593 10.6141 284.48 9.59608 285.369L11.5698 287.629C12.5927 286.735 13.6062 285.844 14.6102 284.955L12.6215 282.709ZM6.64517 287.931C5.65275 288.787 4.65156 289.646 3.64155 290.507L5.5878 292.79C6.60228 291.925 7.60799 291.063 8.60499 290.203L6.64517 287.931Z" fill="#C86561"/>
</svg>
