<svg width="265" height="271" viewBox="0 0 265 271" fill="none" xmlns="http://www.w3.org/2000/svg">
<path opacity="0.2" d="M249.2 183.329H226.198V192.64H249.2V183.329Z" fill="black"/>
<path opacity="0.2" d="M174.377 78.1611H151.375V87.4715H174.377V78.1611Z" fill="black"/>
<path opacity="0.2" d="M160.209 92.2253H137.207V101.536H160.209V92.2253Z" fill="black"/>
<path opacity="0.2" d="M175.79 30.4263H152.788V39.7367H175.79V30.4263Z" fill="black"/>
<path opacity="0.2" d="M157.191 143.34H134.189V152.65H157.191V143.34Z" fill="black"/>
<path opacity="0.2" d="M111.844 60.2031H88.8421V69.5135H111.844V60.2031Z" fill="black"/>
<path opacity="0.2" d="M137.037 60.2031H114.035V69.5135H137.037V60.2031Z" fill="black"/>
<path opacity="0.2" d="M117.759 212.187H94.7569V221.497H117.759V212.187Z" fill="black"/>
<path opacity="0.2" d="M105.71 223.688H82.7082V232.999H105.71V223.688Z" fill="black"/>
<path opacity="0.1" d="M147.613 105.096H124.61V114.406H147.613V105.096Z" fill="black"/>
<path opacity="0.1" d="M113.586 37.0422H90.5837V46.3526H113.586V37.0422Z" fill="black"/>
<path opacity="0.1" d="M262.344 205.652H239.342V214.962H262.344V205.652Z" fill="black"/>
<path opacity="0.1" d="M127.617 189.892H104.615V199.202H127.617V189.892Z" fill="black"/>
<path opacity="0.1" d="M153.905 189.892H130.903V199.202H153.905V189.892Z" fill="black"/>
<path opacity="0.1" d="M156.096 176.748H133.094V186.058H156.096V176.748Z" fill="black"/>
<path opacity="0.1" d="M173.901 105.096H150.899V114.406H173.901V105.096Z" fill="black"/>
<path opacity="0.2" d="M185.67 222.752H162.668V232.062H185.67V222.752Z" fill="black"/>
<path opacity="0.1" d="M173.074 235.622H150.072V244.932H173.074V235.622Z" fill="black"/>
<path opacity="0.1" d="M199.362 235.622H176.36V244.932H199.362V235.622Z" fill="black"/>
<path opacity="0.2" d="M74.159 106.87H51.1569V116.181H74.159V106.87Z" fill="black"/>
<path opacity="0.1" d="M61.5626 119.74H38.5604V129.051H61.5626V119.74Z" fill="black"/>
<path opacity="0.1" d="M87.8508 119.74H64.8486V129.051H87.8508V119.74Z" fill="black"/>
<path opacity="0.2" d="M65.1827 176.2H42.1805V185.51H65.1827V176.2Z" fill="black"/>
<path opacity="0.1" d="M167.049 131.68H144.047V140.99H167.049V131.68Z" fill="black"/>
<path opacity="0.1" d="M132.546 223.141H109.544V232.451H132.546V223.141Z" fill="black"/>
<path opacity="0.1" d="M124.988 48.7021H101.986V58.0125H124.988V48.7021Z" fill="black"/>
<path opacity="0.2" d="M52.0386 145.371H29.0364V154.681H52.0386V145.371Z" fill="black"/>
<path opacity="0.1" d="M65.1827 133.87H42.1805V143.181H65.1827V133.87Z" fill="black"/>
<path opacity="0.1" d="M123.783 77.8928H100.781V87.2032H123.783V77.8928Z" fill="black"/>
<path opacity="0.1" d="M90.2496 83.3586H67.2474V92.669H90.2496V83.3586Z" fill="black"/>
<path opacity="0.2" d="M203.743 153.329H180.741V162.64H203.743V153.329Z" fill="black"/>
<path opacity="0.2" d="M35.8988 204.827H12.8966V214.137H35.8988V204.827Z" fill="black"/>
<path opacity="0.1" d="M25.964 74.01H2.96185V83.3204H25.964V74.01Z" fill="black"/>
<path opacity="0.1" d="M52.2522 74.01H29.25V83.3204H52.2522V74.01Z" fill="black"/>
<path opacity="0.1" d="M54.4429 60.8657H31.4407V70.1761H54.4429V60.8657Z" fill="black"/>
<path opacity="0.1" d="M37.2515 98.2717H14.2493V107.582H37.2515V98.2717Z" fill="black"/>
<path opacity="0.2" d="M67.116 214.411H44.1138V223.721H67.116V214.411Z" fill="black"/>
<g opacity="0.3">
<path d="M175.429 2.96606V134.314H258.127V2.96606H175.429ZM255.098 34.5174H218.651V7.74723H255.098V34.5174ZM218.651 70.1981H255.098V98.8796H218.651V70.1981ZM218.651 66.6985V38.017H255.098V66.6985H218.651ZM178.435 7.74723H214.883V34.5174H178.622V38.017H214.883V66.6985H178.622V70.1981H214.883V98.8796H178.622V102.368H214.883V129.533H178.435V7.74723ZM218.651 129.533V102.368H255.098V129.533H218.651Z" stroke="black" stroke-linecap="round" stroke-linejoin="round"/>
<path d="M209.658 15.7488L191.273 30.9685" stroke="black" stroke-linecap="round" stroke-linejoin="round"/>
<path d="M246.117 75.5474L227.726 90.7671" stroke="black" stroke-linecap="round" stroke-linejoin="round"/>
<path d="M204.587 109.904L186.201 125.119" stroke="black" stroke-linecap="round" stroke-linejoin="round"/>
<path d="M200.014 20.1902L191.591 27.162" stroke="black" stroke-linecap="round" stroke-linejoin="round"/>
<path d="M244.715 72.0642L236.286 79.0361" stroke="black" stroke-linecap="round" stroke-linejoin="round"/>
<path d="M203.502 114.658L195.074 121.635" stroke="black" stroke-linecap="round" stroke-linejoin="round"/>
<path d="M200.967 81.053L192.538 88.0303" stroke="black" stroke-linecap="round" stroke-linejoin="round"/>
<path d="M244.079 140.54L235.651 147.511" stroke="black" stroke-linecap="round" stroke-linejoin="round"/>
<path d="M263.231 134.227H170.664V145.728H263.231V134.227Z" stroke="black" stroke-linecap="round" stroke-linejoin="round"/>
</g>
<g opacity="0.3">
<path d="M39.3546 53.505L39.6941 50.197H17.7709L18.1104 53.505H39.3546Z" stroke="black" stroke-linecap="round" stroke-linejoin="round"/>
<path d="M38.4564 62.2075H19.0086L16.5769 38.6741H40.8826L38.4564 62.2075Z" stroke="black" stroke-linecap="round" stroke-linejoin="round"/>
<path d="M20.5476 38.5044C18.3506 38.072 16.301 37.084 14.5944 35.6346C11.7246 33.2084 6.65315 32.5457 4.88418 33.8711C3.64762 34.829 2.46983 35.8605 1.35718 36.9599C1.35718 36.9599 2.68254 32.1076 6.20954 31.0013C9.73654 29.895 11.9436 31.0013 13.9317 31.883C15.9197 32.7648 16.8015 33.4275 19.0086 34.7528C20.2387 35.4855 21.4171 36.3016 22.5356 37.1954C22.5356 37.1954 21.8729 34.3311 20.5476 33.0057C19.2222 31.6804 11.2864 25.9298 11.2864 25.9298C13.7702 26.5542 16.2033 27.3652 18.565 28.356C21.4348 29.6814 23.6364 32.1076 23.861 33.2084C24.1424 34.2658 24.5087 35.2988 24.9563 36.2972L25.8381 38.4879C25.8381 38.4879 25.619 35.2019 25.3999 32.7538C25.1808 30.3057 24.7372 28.7777 24.9563 26.3515C25.1754 23.9254 25.619 22.3809 25.619 21.0611C25.6671 20.1464 25.8981 19.2507 26.2981 18.4268C26.2981 18.4268 27.1689 24.599 27.6125 26.5925C28.0561 28.586 28.0506 31.2258 28.2697 32.5457C28.4888 33.8656 29.1569 37.8417 29.1569 37.8417C29.1569 37.8417 28.7133 34.5557 30.0387 32.7702C31.364 30.9848 31.8022 29.6814 32.6839 28.356C33.5657 27.0307 34.672 24.8236 34.672 24.8236C34.672 24.8236 34.672 28.356 33.7848 30.5631C32.8975 32.7702 32.2403 33.8492 32.2403 34.7528V37.8417C32.2403 37.8417 34.431 33.8711 35.7728 32.7702C37.1146 31.6694 37.9635 31.6749 38.418 31.0013C38.8726 30.3276 41.5069 28.8106 41.5069 28.8106C41.5069 28.8106 39.9899 32.3266 39.5243 32.9893C38.698 33.9267 37.8127 34.8102 36.8736 35.6346C38.4442 34.8602 40.0675 34.1977 41.7315 33.652C43.9221 32.9893 47.2465 32.3266 48.5664 32.3266C49.8863 32.3266 54.306 31.664 54.306 31.664C54.306 31.664 50.3354 33.4275 47.9092 34.3147C45.483 35.2019 43.9331 35.6346 43.0513 35.8591L42.1805 36.1001C44.2818 36.4293 46.3493 36.9462 48.3583 37.6445C51.4471 38.7399 52.3289 39.6271 52.7725 40.2898C53.0835 40.8397 53.3071 41.4346 53.4352 42.0533C53.4352 42.0533 54.7551 43.1486 54.7551 44.0413C54.7551 44.934 48.7909 39.8297 46.5619 39.167C44.3329 38.5044 40.8607 38.6741 40.8607 38.6741" stroke="black" stroke-linecap="round" stroke-linejoin="round"/>
</g>
<g opacity="0.3">
<path d="M53.1559 70.1653L52.9258 67.9253H67.7841L67.5486 70.1653H53.1559Z" stroke="black" stroke-linecap="round" stroke-linejoin="round"/>
<path d="M53.7692 76.0636H66.9407L68.5892 60.1155H52.1208L53.7692 76.0636Z" stroke="black" stroke-linecap="round" stroke-linejoin="round"/>
<path d="M65.9001 60.0005C67.3894 59.7122 68.7783 59.0423 69.931 58.0562C71.8752 56.4132 75.3146 55.9642 76.5031 56.8623C77.3426 57.5104 78.1418 58.2091 78.8964 58.9544C78.8964 58.9544 77.9982 55.6684 75.6103 54.9181C73.2225 54.1678 71.7219 54.9181 70.3746 55.5151C69.1853 56.0809 68.0378 56.7306 66.9407 57.4593C66.1064 57.9517 65.3067 58.5007 64.5474 59.1023C64.5474 59.1023 64.9965 57.1635 65.8947 56.2654C66.7929 55.3672 72.171 51.4787 72.171 51.4787C70.4892 51.9025 68.8416 52.4517 67.2419 53.1217C65.2977 54.0144 63.8026 55.6629 63.6547 56.4078C63.4635 57.1241 63.2144 57.8238 62.9099 58.4999L62.3074 59.995C62.3074 59.995 62.4608 57.755 62.6087 56.1065C62.7565 54.4581 63.0577 53.4175 62.9099 51.7745C62.762 50.1315 62.4608 49.0854 62.4608 48.1872C62.4332 47.5644 62.2804 46.9534 62.0117 46.3909C62.0117 46.3909 61.4147 50.5805 61.1135 51.9223C60.8123 53.2641 60.8178 55.0605 60.6644 55.9587C60.5111 56.8569 60.0675 59.5459 60.0675 59.5459C60.0675 59.5459 60.3687 57.3059 59.4705 56.1065C58.5723 54.9071 58.2766 54.0144 57.6741 53.1217C57.0717 52.229 56.3323 50.7284 56.3323 50.7284C56.3332 52.0473 56.5345 53.3584 56.9293 54.6169C57.5263 56.1065 57.9754 56.8569 57.9754 57.4538V59.5459C57.9754 59.5459 56.4802 56.8569 55.582 56.1065C54.6839 55.3562 54.0869 55.3617 53.7912 54.9126C53.4954 54.4635 51.6991 53.4175 51.6991 53.4175C51.6991 53.4175 52.7451 55.8108 53.0408 56.2599C53.6009 56.8945 54.2009 57.4927 54.8372 58.0508C53.7746 57.5273 52.6765 57.0789 51.5512 56.709C50.0405 56.2494 48.4857 55.9502 46.9124 55.8163C46.0142 55.8163 43.0294 55.3672 43.0294 55.3672C43.0294 55.3672 45.7185 56.5611 47.3615 57.1635C49.0045 57.766 50.0506 58.0563 50.6475 58.2096L51.2445 58.3575C49.8195 58.5803 48.4173 58.9304 47.0548 59.4035C44.9627 60.1484 44.3657 60.7508 44.07 61.1944C43.8568 61.5675 43.7052 61.9725 43.6209 62.3938C43.6209 62.3938 42.7282 63.1386 42.7282 63.7356C42.7282 64.3326 46.7645 60.8987 48.2597 60.4496C49.5258 60.1649 50.8246 60.0525 52.1208 60.1155" stroke="black" stroke-linecap="round" stroke-linejoin="round"/>
</g>
<g opacity="0.3">
<path d="M81.7607 32.4364L82.0236 29.8623H64.9855L65.2484 32.4364H81.7607Z" stroke="black" stroke-linecap="round" stroke-linejoin="round"/>
<path d="M81.0597 39.1999H65.9494L64.06 20.9077H82.9491L81.0597 39.1999Z" stroke="black" stroke-linecap="round" stroke-linejoin="round"/>
<path d="M64.0874 20.9078C64.0874 20.9078 61.9843 18.8431 60.763 18.3173C59.5417 17.7916 57.236 16.9317 57.236 16.9317C57.236 16.9317 60.0346 16.9317 61.9569 17.808C63.2749 18.4314 64.555 19.1318 65.7906 19.9056C65.7906 19.9056 64.0381 17.4575 62.6415 15.7104C61.2449 13.9634 58.0904 10.984 57.9206 10.1132C57.7508 9.24244 62.1157 13.0871 65.0896 15.3599C68.0634 17.6328 68.5892 19.1936 68.5892 19.1936C68.5892 19.1936 66.3164 14.993 64.5638 11.3181C63.5113 9.03625 62.2266 6.86882 60.7301 4.85012C60.1825 4.14911 65.8016 10.6226 67.7239 13.7717C69.6462 16.9208 70.873 18.8431 70.873 18.8431C70.873 18.8431 68.7754 8.34426 68.4249 5.89617L67.7239 1C67.7239 1 71.0482 10.6226 71.5576 12.3696C72.0669 14.1167 72.9541 17.2658 72.9541 17.2658C72.9541 17.2658 74.0057 12.1944 74.3562 9.05076C74.7067 5.90713 76.2785 1.38337 76.2785 1.38337C76.2785 1.38337 75.5884 11.1429 75.4296 13.5964L75.0791 18.4926C75.0791 18.4926 76.8262 13.9415 78.4035 11.8439C79.7709 10.1309 81.2336 8.49623 82.7848 6.9477C82.7848 6.9477 79.8 12.5504 79.099 14.292C78.398 16.0336 77.5272 19.221 77.5272 19.221C77.5272 19.221 81.0268 13.7991 82.5986 12.0465C83.9275 10.6538 85.4625 9.4735 87.1498 8.5469C88.5463 7.6761 82.7684 14.6699 82.0729 16.2471C81.6156 17.2604 81.0962 18.2445 80.5175 19.1936C80.5175 19.1936 81.569 17.7916 84.3512 16.7401C87.08 15.7866 89.8903 15.0845 92.747 14.6425C93.448 14.6425 88.3656 16.7401 86.624 17.4411C84.8824 18.1421 82.9491 20.9078 82.9491 20.9078" stroke="black" stroke-linecap="round" stroke-linejoin="round"/>
</g>
<path d="M207.836 86.8235C209.831 78.7265 202.796 70.0311 192.123 67.4017C181.451 64.7724 171.182 69.2047 169.187 77.3017C167.192 85.3987 174.227 94.0942 184.899 96.7235C195.572 99.3529 205.841 94.9205 207.836 86.8235Z" fill="#ECECEC" stroke="#263238" stroke-linecap="round" stroke-linejoin="round"/>
<path d="M177.258 88.5987C177.258 88.5987 173.309 89.6941 171.513 87.5034C169.717 85.3127 172.411 79.0638 175.374 76.1885C178.337 73.3133 186.689 72.0591 190.999 72.5082C195.309 72.9573 200.424 76.1885 201.147 79.6279C201.87 83.0673 200.424 86.3643 200.337 87.4377C200.249 88.5111 197.73 88.533 197.374 87.9854C197.018 87.4377 191.629 79.5458 190.55 79.1843C189.471 78.8228 188.754 79.5458 187.587 80.1701C186.421 80.7944 177.532 84.5515 177.532 84.5515L177.258 88.5987Z" fill="#263238" stroke="#263238" stroke-linecap="round" stroke-linejoin="round"/>
<path d="M190.336 178.718L188.562 167.19L184.487 181.199C183.41 182.957 182.509 184.817 181.798 186.753C180.785 189.962 185.895 200.072 186.229 199.004C186.563 197.936 188.491 184.217 188.491 184.217C188.694 182.825 188.76 181.416 188.688 180.011L190.336 178.718Z" fill="white" stroke="#263238" stroke-linecap="round" stroke-linejoin="round"/>
<path d="M187.97 186.873C187.97 186.873 184.279 188.133 184.279 195.97C184.279 198.106 187.324 220.555 187.324 224.312V239.888H207.719L210.233 225.101L212.123 239.576H232.578C232.578 239.576 234.621 216.765 234.769 213.934C234.917 211.102 236.341 204.963 235.864 196.468C235.388 187.974 233.504 184.666 233.504 184.666L188.409 183.872L187.97 186.873Z" fill="#263238" stroke="#263238" stroke-linecap="round" stroke-linejoin="round"/>
<path d="M191.755 107.932C191.755 107.932 182.143 116.147 180.062 118.365C177.981 120.583 178.797 133.513 181.557 142.347C184.317 151.181 187.253 164.846 187.39 167.606C187.527 170.366 187.97 186.873 187.97 186.873C187.97 186.873 205.123 193.642 215.617 191.983C221.902 190.998 227.972 188.944 233.564 185.909C233.564 185.909 231.921 157.605 231.921 151.406C231.921 145.206 230.541 124.625 229.183 117.45C227.824 110.276 222.972 105.993 219.379 105.577C215.787 105.161 202.325 104.558 202.325 104.558L191.755 107.932Z" fill="white" stroke="#263238" stroke-linecap="round" stroke-linejoin="round"/>
<path d="M186.902 105.993C186.902 105.993 191.24 118.162 191.963 118.283C192.686 118.403 194.614 116.475 194.614 116.475L202.325 104.558L199.258 93.5444C199.258 93.5444 197.505 99.3717 194.132 103.107C190.758 106.842 186.902 105.993 186.902 105.993Z" fill="white" stroke="#263238" stroke-linecap="round" stroke-linejoin="round"/>
<path d="M195.282 103.611L189.592 112.417L186.902 105.993L195.282 103.611Z" fill="#263238" stroke="#263238" stroke-linecap="round" stroke-linejoin="round"/>
<path d="M190.282 75.8435C190.282 75.8435 185.353 79.7977 181.393 81.2326C177.433 82.6675 175.462 83.1987 175.462 83.1987C175.462 83.1987 176.721 91.1892 177.105 93.4347C177.488 95.6801 178.271 99.4591 179.887 101.069C181.502 102.679 185.451 106.546 187.248 107.532C189.044 108.518 192.1 107.712 192.998 107.263C193.896 106.814 199.099 98.9114 199.373 97.8325C199.647 96.7536 199.28 93.5223 199.28 93.5223C199.28 93.5223 201.613 92.2681 201.974 91.0085C202.336 89.7489 201.525 85.0827 200.808 84.4364C200.09 83.7902 198.924 84.5296 198.743 85.247C198.554 85.8646 198.314 86.4654 198.026 87.0434C197.969 85.9798 197.693 84.9394 197.215 83.9874C196.498 82.8208 196.498 82.3444 194.789 81.0245C193.08 79.7046 190.282 75.8435 190.282 75.8435Z" fill="white" stroke="#263238" stroke-linecap="round" stroke-linejoin="round"/>
<path d="M184.263 93.5334L184.531 95.9596C184.531 95.9596 187.494 95.872 188.841 94.4316" stroke="#263238" stroke-linecap="round" stroke-linejoin="round"/>
<path d="M182.932 98.4733C182.932 98.4733 185.09 99.1908 188.409 98.205C191.727 97.2192 192.543 94.8806 192.543 94.8806" stroke="#263238" stroke-linecap="round" stroke-linejoin="round"/>
<path d="M182.286 87.5198C182.286 87.5198 178.425 86.2602 177.258 88.6152" stroke="#263238" stroke-linecap="round" stroke-linejoin="round"/>
<path d="M186.218 86.0851C186.218 86.0851 188.819 83.4782 191.514 84.4421" stroke="#263238" stroke-linecap="round" stroke-linejoin="round"/>
<path d="M181.886 90.9704C182.143 91.6659 182.067 92.3396 181.716 92.4655C181.366 92.5915 180.878 92.1315 180.621 91.4304C180.363 90.7294 180.445 90.0613 180.796 89.9353C181.146 89.8093 181.634 90.2694 181.886 90.9704Z" fill="#263238"/>
<path d="M190.243 88.4017C190.501 89.1027 190.424 89.7709 190.074 89.9023C189.723 90.0338 189.236 89.5628 188.978 88.8672C188.721 88.1717 188.797 87.498 189.148 87.3721C189.498 87.2461 189.986 87.7062 190.243 88.4017Z" fill="#263238"/>
<path d="M210.644 120.747L218.53 148.919C218.311 149.628 218.264 150.379 218.394 151.11C218.558 151.608 218.696 152.114 218.804 152.627C218.804 152.627 216.614 163.674 214.664 170.437C212.714 177.201 205.83 191.972 206.104 193.631C206.378 195.291 204.724 207.712 205.556 208.265C206.389 208.818 208.322 209.645 208.87 209.645C209.417 209.645 211.909 209.919 212.736 209.919C213.563 209.919 216.603 209.782 217.156 208.676C217.709 207.569 217.572 206.885 216.74 207.159C216.022 207.358 215.289 207.497 214.549 207.575L214.001 206.479C214.001 206.479 214.691 201.649 214.001 198.056C213.311 194.464 213.037 193.226 213.037 193.226C213.037 193.226 230.294 165.202 230.984 159.955C231.675 154.708 232.775 148.908 232.775 146.263C232.775 143.618 230.037 120.035 229.188 117.412C228.339 114.788 227.945 112.165 225.738 109.958C223.531 107.751 222.008 107.767 220.902 107.767" fill="white"/>
<path d="M210.644 120.747L218.53 148.919C218.311 149.628 218.264 150.379 218.394 151.11C218.558 151.608 218.696 152.114 218.804 152.627C218.804 152.627 216.614 163.674 214.664 170.437C212.714 177.201 205.83 191.972 206.104 193.631C206.378 195.291 204.724 207.712 205.556 208.265C206.389 208.818 208.322 209.645 208.87 209.645C209.417 209.645 211.909 209.919 212.736 209.919C213.563 209.919 216.603 209.782 217.156 208.676C217.709 207.569 217.572 206.885 216.74 207.159C216.022 207.358 215.289 207.497 214.549 207.575L214.001 206.479C214.001 206.479 214.691 201.649 214.001 198.056C213.311 194.464 213.037 193.226 213.037 193.226C213.037 193.226 230.294 165.202 230.984 159.955C231.675 154.708 232.775 148.908 232.775 146.263C232.775 143.618 230.037 120.035 229.188 117.412C228.339 114.788 227.945 112.165 225.738 109.958C223.531 107.751 222.008 107.767 220.902 107.767" stroke="#263238" stroke-linecap="round" stroke-linejoin="round"/>
<path d="M219.9 181.883C219.9 181.883 223.952 180.196 227.414 181.719" stroke="#263238" stroke-linecap="round" stroke-linejoin="round"/>
<path d="M222.517 178.844C222.517 178.844 227.162 177.748 230.119 181.21" stroke="#263238" stroke-linecap="round" stroke-linejoin="round"/>
<path d="M215.951 165.464C215.524 167.222 215.08 168.942 214.647 170.448C212.714 177.212 205.814 191.983 206.087 193.642C206.361 195.301 204.707 207.723 205.54 208.276C206.372 208.829 208.305 209.656 208.853 209.656C209.401 209.656 211.893 209.93 212.72 209.93C213.547 209.93 216.586 209.793 217.139 208.687C217.693 207.58 217.556 206.896 216.723 207.169C216.006 207.369 215.273 207.508 214.532 207.586L213.985 206.49C213.985 206.49 214.675 201.66 213.985 198.067C213.295 194.474 213.021 193.237 213.021 193.237C213.021 193.237 221.269 179.759 226.603 169.731C223.164 166.171 218.826 165.464 215.951 165.464Z" fill="white" stroke="#263238" stroke-linecap="round" stroke-linejoin="round"/>
<path d="M211.142 207.373C211.142 207.373 212.512 208.534 212.988 208.901C213.465 209.268 213.618 209.64 214.511 209.744" fill="white"/>
<path d="M211.142 207.373C211.142 207.373 212.512 208.534 212.988 208.901C213.465 209.268 213.618 209.64 214.511 209.744" stroke="#263238" stroke-linecap="round" stroke-linejoin="round"/>
<path d="M208.459 208.069C208.459 208.069 210.513 209.597 211.772 209.914Z" fill="white"/>
<path d="M208.459 208.069C208.459 208.069 210.513 209.597 211.772 209.914" stroke="#263238" stroke-linecap="round" stroke-linejoin="round"/>
<path d="M206.197 207.74C206.735 208.453 207.416 209.046 208.196 209.482Z" fill="white"/>
<path d="M206.197 207.74C206.735 208.453 207.416 209.046 208.196 209.482" stroke="#263238" stroke-linecap="round" stroke-linejoin="round"/>
<path d="M187.916 183.472C187.916 183.472 188.42 187.18 188.617 187.782C188.814 188.385 188.518 189.486 188.721 191.786C188.923 194.086 189.52 196.496 188.02 196.096C186.519 195.696 185.829 191.786 185.911 190.784C185.993 189.781 184.208 186.78 184.208 186.78" fill="white"/>
<path d="M187.916 183.472C187.916 183.472 188.42 187.18 188.617 187.782C188.814 188.385 188.518 189.486 188.721 191.786C188.923 194.086 189.52 196.496 188.02 196.096C186.519 195.696 185.829 191.786 185.911 190.784C185.993 189.781 184.208 186.78 184.208 186.78" stroke="#263238" stroke-linecap="round" stroke-linejoin="round"/>
<path d="M158.736 163.16C157.334 160.476 146.923 123.569 146.923 123.569C144.962 128.941 143.708 155.432 143.708 155.432L144.847 169.48L144.644 172.114C147.383 170.247 154.031 166.566 158.462 171.468C158.528 171.21 158.582 170.991 158.61 170.822C159.185 167.267 160.138 165.827 158.736 163.16Z" fill="#ECECEC" stroke="#263238" stroke-linecap="round" stroke-linejoin="round"/>
<path d="M155.379 166.698C156.08 166.812 156.764 167.013 157.416 167.295" stroke="#263238" stroke-linecap="round" stroke-linejoin="round"/>
<path d="M145.614 167.996C147.924 167.146 150.351 166.651 152.81 166.528" stroke="#263238" stroke-linecap="round" stroke-linejoin="round"/>
<path d="M156.731 165.219C156.731 165.219 153.664 163.357 151.2 164.091" stroke="#263238" stroke-linecap="round" stroke-linejoin="round"/>
<path d="M94.5433 239.521L95.1951 211.382L97.1941 195.943L143.741 194.355L147.886 205.423L150.444 239.888H126.883L122.436 217.061L121.16 219.258L120.673 239.401L94.5433 239.521Z" fill="#263238" stroke="#263238" stroke-linecap="round" stroke-linejoin="round"/>
<path d="M109.204 118.306C109.204 118.306 88.9407 123.673 87.6975 124.286C86.4543 124.899 89.1871 143.329 91.104 150.027C93.0208 156.725 97.676 181.397 97.676 181.397L97.3638 199.218C97.3638 199.218 117.25 199.711 125.207 198.731C130.809 197.976 136.367 196.923 141.857 195.576C141.857 195.576 144.677 179.825 143.708 169.452C142.738 159.08 145.564 133.306 145.603 131.608C145.641 129.911 146.901 123.552 146.901 123.552C146.901 123.552 131.752 118.913 127.858 118.426C121.656 117.829 115.413 117.788 109.204 118.306Z" fill="#ECECEC" stroke="#263238" stroke-linecap="round" stroke-linejoin="round"/>
<path d="M105.387 122.851C105.387 122.851 107.912 129.812 113.876 133.969" stroke="#263238" stroke-linecap="round" stroke-linejoin="round"/>
<path d="M126.297 121.619C125.492 123.556 124.547 125.432 123.471 127.233" stroke="#263238" stroke-linecap="round" stroke-linejoin="round"/>
<path d="M123.099 128.689L122.053 130.152" stroke="#263238" stroke-linecap="round" stroke-linejoin="round"/>
<path d="M115.798 197.252C120.508 196.973 129.145 196.217 134.753 194.256" stroke="#263238" stroke-linecap="round" stroke-linejoin="round"/>
<path d="M112.447 197.4C112.447 197.4 112.994 197.4 113.909 197.345" stroke="#263238" stroke-linecap="round" stroke-linejoin="round"/>
<path d="M131.845 192.186C125.662 192.991 116.286 193.72 108.985 192.143" stroke="#263238" stroke-linecap="round" stroke-linejoin="round"/>
<path d="M138.423 191.091C138.423 191.091 136.862 191.414 134.354 191.792" stroke="#263238" stroke-linecap="round" stroke-linejoin="round"/>
<path d="M137.908 182.531C134.167 184.721 127.02 188.38 119.939 189.541" stroke="#263238" stroke-linecap="round" stroke-linejoin="round"/>
<path d="M140.581 180.899C140.581 180.899 140.077 181.238 139.178 181.781" stroke="#263238" stroke-linecap="round" stroke-linejoin="round"/>
<path d="M106.34 111.29L107.189 121.088C107.189 121.088 110.185 128.207 117.157 127.731C123.986 127.282 124.999 118.585 124.999 118.585L123.619 108.239C123.619 108.239 117.595 113.25 114.249 112.812C110.902 112.374 106.34 111.29 106.34 111.29Z" fill="white" stroke="#263238" stroke-linecap="round" stroke-linejoin="round"/>
<path d="M99.3957 99.6847C99.3957 99.6847 98.1525 98.1019 97.205 99.5313C96.2576 100.961 97.3803 104.805 99.0945 105.638C100.809 106.47 101.258 106.465 101.258 106.465C101.258 106.465 103.202 110.299 104.226 111.438C105.25 112.577 112.742 117.922 114.544 118.251C116.346 118.579 118.926 118.021 119.928 116.969C120.93 115.918 124.123 108.677 124.616 106.947C125.109 105.216 125.196 104.833 125.218 103.781C125.24 102.73 125.191 101.821 125.191 101.821C125.191 101.821 126.987 99.1808 127.19 97.0723C127.393 94.9638 126.905 93.381 125.782 93.0798C124.66 92.7786 123.395 95.035 123.395 95.035L119.61 83.4298C119.61 83.4298 118.307 80.2369 117.211 79.859C116.116 79.4811 108.005 80.4669 104.577 81.8963C101.148 83.3258 97.802 84.8373 97.5336 86.4201C97.2653 88.0029 99.3957 99.6847 99.3957 99.6847Z" fill="white" stroke="#263238" stroke-linecap="round" stroke-linejoin="round"/>
<path d="M105.595 83.4408C105.595 83.4408 99.1219 84.7278 98.744 85.7794C98.3661 86.8309 97.8513 88.8244 98.5194 90.3469C99.1876 91.8695 99.9324 99.7121 99.9324 99.7121C99.9324 99.7121 100.924 102.171 100.228 101.815C99.5326 101.459 99.0233 98.5291 98.7987 98.1896C98.5742 97.85 95.6661 92.22 94.7788 90.1114C93.8916 88.0029 95.8139 86.0149 96.2959 85.5439C96.6473 85.1809 96.9696 84.7908 97.2598 84.3773C97.2598 84.3773 96.7559 80.9818 98.3168 79.4483C99.8777 77.9148 111.171 75.6146 112.113 75.2312C113.055 74.8479 114.04 72.8927 114.851 72.4217C115.662 71.9507 118.137 73.1282 119.561 76.0527C120.985 78.9773 120.875 79.7988 120.393 80.3848L119.95 81.0092C119.95 81.0092 121.593 81.2447 122.234 83.4682C122.874 85.6917 123.767 87.7948 123.723 89.5528C123.679 91.3108 123.422 94.6845 123.411 95.0295C123.4 95.3746 123.006 95.0295 122.683 93.8794C122.36 92.7293 119.397 84.1637 118.958 83.2272C118.59 82.4635 118.178 81.7211 117.726 81.0037C117.485 80.6313 107.901 81.0092 105.595 83.4408Z" fill="#263238" stroke="#263238" stroke-linecap="round" stroke-linejoin="round"/>
<path d="M114.544 118.251C116.346 118.552 118.926 118.021 119.928 116.969C120.93 115.918 124.123 108.677 124.616 106.947C125.109 105.216 125.196 104.833 125.218 103.781C125.24 102.73 125.191 101.821 125.191 101.821L123.603 94.7009L123.466 94.9145C123.647 97.1052 123.975 101.355 123.909 101.963C123.802 102.429 123.562 102.855 123.219 103.189C122.877 103.523 122.445 103.751 121.976 103.847C121.067 104 116.79 103.299 114.9 103.475C113.011 103.65 112.397 104.302 110.946 105.057C109.495 105.813 106.51 107.615 105.754 107.845C104.998 108.075 103.563 107.544 102.988 106.788C102.413 106.032 99.9324 99.734 99.9324 99.734C99.8619 100.147 99.7211 100.546 99.5162 100.912L101.263 106.487C101.263 106.487 103.207 110.32 104.232 111.46C105.256 112.599 112.742 117.922 114.544 118.251Z" fill="#263238" stroke="#263238" stroke-linecap="round" stroke-linejoin="round"/>
<path d="M113.652 92.8225C113.652 92.8225 112.414 94.2574 112.627 94.7065C112.841 95.1556 115.656 103.469 115.557 104.356C115.459 105.244 114.243 105.709 113.274 105.408C112.304 105.107 111.685 102.396 111.685 102.396" fill="white"/>
<path d="M113.652 92.8225C113.652 92.8225 112.414 94.2574 112.627 94.7065C112.841 95.1556 115.656 103.469 115.557 104.356C115.459 105.244 114.243 105.709 113.274 105.408C112.304 105.107 111.685 102.396 111.685 102.396" stroke="#263238" stroke-linecap="round" stroke-linejoin="round"/>
<path d="M114.955 92.072C114.955 92.072 117.633 90.188 120.015 91.4696" stroke="#263238" stroke-width="3" stroke-linecap="round" stroke-linejoin="round"/>
<path d="M107.901 93.726C107.901 93.726 103.783 92.8224 101.97 95.9879" stroke="#263238" stroke-width="3" stroke-linecap="round" stroke-linejoin="round"/>
<path d="M107.485 97.5761C107.633 98.2005 107.441 98.7919 107.058 98.8905C106.674 98.9891 106.242 98.5674 106.094 97.9431C105.946 97.3187 106.132 96.7327 106.515 96.6287C106.899 96.5246 107.353 96.9518 107.485 97.5761Z" fill="#263238" stroke="#263238" stroke-linecap="round" stroke-linejoin="round"/>
<path d="M117.387 94.9803C117.535 95.6047 117.343 96.1907 116.959 96.2892C116.576 96.3878 116.143 95.9661 115.996 95.3418C115.848 94.7174 116.034 94.1314 116.417 94.0328C116.801 93.9343 117.239 94.356 117.387 94.9803Z" fill="#263238" stroke="#263238" stroke-linecap="round" stroke-linejoin="round"/>
<path d="M110.398 109.028C110.398 109.028 115.645 110.008 118.745 106.542" stroke="#858585" stroke-linecap="round" stroke-linejoin="round"/>
<path d="M158.61 170.827C158.61 170.904 158.577 170.997 158.555 171.09C158.577 170.975 158.593 170.882 158.61 170.827Z" stroke="#263238" stroke-linecap="round" stroke-linejoin="round"/>
<path d="M158.462 171.452C154.031 166.55 147.361 170.23 144.644 172.098L143.231 185.067L142.563 187.509C142.563 187.509 137.546 192.876 136.911 193.977C136.278 194.968 135.471 195.836 134.529 196.54C133.784 197.154 132.185 197.636 132.042 198.37C131.9 199.104 134.337 199.465 135.076 199.104C135.816 198.742 137.7 196.787 137.7 196.787L136.522 199.958L146.063 204.109C146.063 204.109 146.61 201.3 146.906 199.591C147.202 197.882 147.656 193.857 147.799 193.123C147.941 192.389 157.509 175.526 158.544 171.112L158.462 171.452Z" fill="white" stroke="#263238" stroke-linecap="round" stroke-linejoin="round"/>
<path d="M87.6975 124.275C87.6975 124.275 85.2001 126.592 84.6579 128.914C84.1157 131.236 75.8294 160.263 73.8907 164.66C71.9519 169.058 71.6233 172.596 72.6803 174.305C73.7373 176.014 92.8291 189.585 92.8291 189.585C92.8291 189.585 94.861 196.42 95.4251 198.129C95.9892 199.837 97.0243 202.767 97.0243 202.767L104.692 199.224C105.431 200.052 106.227 200.828 107.074 201.546C108.032 202.28 109.265 202.641 109.506 201.913C109.747 201.185 108.356 199.103 108.356 199.103C107.958 198.254 107.692 197.349 107.567 196.42C107.474 195.198 105.694 193.002 104.987 191.902C104.281 190.801 98.4154 186.775 98.4154 186.775L86.4159 167.957L91.1313 150.032C91.1313 150.032 86.8431 129.292 87.6975 124.275Z" fill="white" stroke="#263238" stroke-linecap="round" stroke-linejoin="round"/>
<path d="M86.3885 167.968L91.8214 152.754C91.8214 152.754 86.8431 129.286 87.6975 124.275C87.6975 124.275 85.2001 126.592 84.6579 128.914C84.1157 131.236 75.8294 160.263 73.8907 164.66C71.9519 169.058 71.6233 172.596 72.6803 174.305C74.0579 176.155 75.8391 177.666 77.8887 178.725C78.984 176.6 81.8867 171.66 88.152 171.227L86.3885 167.968Z" fill="#ECECEC" stroke="#263238" stroke-linecap="round" stroke-linejoin="round"/>
<path d="M77.3739 167.114C79.7614 166.86 82.1754 167.152 84.4333 167.968" stroke="#263238" stroke-linecap="round" stroke-linejoin="round"/>
<path d="M82.2865 166.013C82.2865 166.013 85.3151 166.868 86.3885 167.968" stroke="#263238" stroke-linecap="round" stroke-linejoin="round"/>
<path d="M147.174 187.088C147.174 187.088 140.268 206.426 142.842 216.832C145.416 227.237 147.771 239.894 147.771 239.894H183.244C183.244 239.894 187.226 227.013 186.755 219.291C186.284 211.568 185.353 202.899 185.353 202.899L183.48 180.647H148.111L147.174 187.088Z" fill="#263238" stroke="#263238" stroke-linecap="round" stroke-linejoin="round"/>
<path d="M163.917 206.168C163.917 206.168 169.771 218.579 172.345 228.3C174.919 238.021 174.804 239.768 174.804 239.768" stroke="#858585" stroke-linecap="round" stroke-linejoin="round"/>
<path d="M170.472 216.59C170.472 216.59 176.677 211.207 178.55 204.783" stroke="#858585" stroke-linecap="round" stroke-linejoin="round"/>
<path d="M167.778 128.552L151.156 134.029C155.243 141.16 157.943 149 159.114 157.135C161.107 170.712 160.286 184.519 160.286 184.519C160.286 184.519 164.618 187.093 172.811 186.162C181.004 185.231 183.48 180.647 183.48 180.647C183.48 180.647 182.894 157.935 179.848 148.92C176.803 139.906 167.778 128.552 167.778 128.552Z" fill="#F8F7F3" stroke="#263238" stroke-linecap="round" stroke-linejoin="round"/>
<path d="M143.045 88.2111C143.045 88.2111 139.031 87.8989 137.344 92.4337C135.657 96.9684 130.909 112.802 131.867 116.285C132.825 119.768 134.929 120.929 135.772 124.73C136.615 128.531 134.704 130.847 134.704 130.847C134.704 130.847 136.183 132.961 139.77 133.065C143.357 133.169 148.741 130.327 152.328 129.478C155.915 128.629 163.829 127.895 168.791 127.156C173.753 126.417 174.815 122.725 174.815 122.725C174.815 122.725 171.436 123.037 171.228 120.929C171.02 118.82 173.758 110.901 172.597 105.413C171.436 99.9258 163.522 94.46 160.039 91.6943C156.556 88.9286 153.286 86.7653 149.59 86.6284C145.893 86.4914 143.675 86.8419 143.045 88.2111Z" fill="#263238" stroke="#263238" stroke-linecap="round" stroke-linejoin="round"/>
<path d="M141.249 108.053C141.249 108.053 138.083 113.53 138.51 118.393C138.938 123.257 142.629 123.569 143.363 122.933" stroke="#858585" stroke-linecap="round" stroke-linejoin="round"/>
<path d="M161.512 100.035C161.512 100.035 169.109 107.106 170.275 114.598" stroke="#858585" stroke-linecap="round" stroke-linejoin="round"/>
<path d="M150.181 120.162L153.736 129.9C153.736 129.9 161.178 138.564 164.404 137.343C167.63 136.121 164.519 127.446 164.404 126.225C164.289 125.004 163.309 118.996 163.309 118.996C163.309 118.996 161.085 122.555 159.639 122.555C158.194 122.555 150.181 120.162 150.181 120.162Z" fill="white" stroke="#263238" stroke-linecap="round" stroke-linejoin="round"/>
<path d="M147.399 94.5696C147.399 94.5696 141.594 105.183 141.594 106.618C141.594 108.053 146.057 117.024 147.289 118.793C148.522 120.562 157.005 124.489 158.906 124.598C160.806 124.708 162.701 122.588 163.145 120.913C163.588 119.237 165.489 114.653 165.363 112.106C165.313 111.153 161.874 100.441 160.866 99.882C159.859 99.3234 147.399 94.5696 147.399 94.5696Z" fill="white" stroke="#263238" stroke-linecap="round" stroke-linejoin="round"/>
<path d="M151.2 109.406C151.2 109.406 149.069 108.524 147.821 110.43" stroke="#263238" stroke-linecap="round" stroke-linejoin="round"/>
<path d="M156.846 107.352C156.846 107.352 157.29 105.074 159.93 105.737" stroke="#263238" stroke-linecap="round" stroke-linejoin="round"/>
<path d="M149.874 106.394C149.874 106.394 146.501 106.175 145.493 108.524" stroke="#263238" stroke-linecap="round" stroke-linejoin="round"/>
<path d="M154.453 104.269C154.453 104.269 156.288 101.771 158.834 102.653" stroke="#263238" stroke-linecap="round" stroke-linejoin="round"/>
<path d="M157.509 112.194C157.509 112.194 156.414 113.809 154.771 113.366" stroke="#263238" stroke-linecap="round" stroke-linejoin="round"/>
<path d="M160.664 113.223C160.664 113.223 158.539 116.378 152.668 116.816C152.668 116.816 156.556 119.604 158.829 118.87C161.102 118.136 160.664 113.223 160.664 113.223Z" fill="white" stroke="#263238" stroke-linecap="round" stroke-linejoin="round"/>
<path d="M143.713 112.265C143.713 112.265 141.802 111.389 141.523 113.733C141.243 116.077 146.145 116.893 146.145 116.893L143.713 112.265Z" fill="white" stroke="#263238" stroke-linecap="round" stroke-linejoin="round"/>
<path d="M162.706 103.803C162.7 103.685 162.722 103.568 162.772 103.461C162.822 103.354 162.897 103.261 162.991 103.19C163.085 103.119 163.196 103.072 163.312 103.054C163.429 103.036 163.548 103.047 163.659 103.086C164.596 103.327 166.168 106.136 165.998 107.818C165.828 109.499 164.727 109.532 164.727 109.532L162.706 103.803Z" fill="white" stroke="#263238" stroke-linecap="round" stroke-linejoin="round"/>
<path d="M147.837 129.779C147.837 129.779 134.83 138.454 134.271 140.01C133.713 141.565 143.166 187.712 143.166 187.712C143.166 187.712 130.602 215.955 133.718 220.846C136.834 225.737 150.953 230.408 151.616 231.296C152.279 232.183 157.958 207.839 160.379 198.611C162.799 189.382 166.852 172.7 167.049 164.803C167.247 156.905 164.048 146.456 162.936 143.006C161.825 139.555 159.848 133.586 159.848 133.586L147.837 129.779Z" fill="#ECECEC" stroke="#263238" stroke-linecap="round" stroke-linejoin="round"/>
<path d="M151.167 124.275C151.167 124.275 160.319 133.109 159.875 133.553C159.431 133.996 154.201 141.768 154.201 141.768L146.2 130.091L151.167 124.275Z" fill="#ECECEC" stroke="#263238" stroke-linecap="round" stroke-linejoin="round"/>
<path d="M165.954 133.12C165.954 133.12 173.967 142.896 177.302 149.906C180.637 156.916 182.198 169.365 182.198 174.256V183.484C182.198 183.484 185.67 206.837 186.766 210.73C187.861 214.624 189.657 221.848 189.657 221.848C189.657 221.848 190.988 221.405 190.879 216.508C190.769 211.612 188.989 191.715 187.434 183.818C185.878 175.921 185.243 162.837 184.23 160.504L183.228 158.165L195.107 154.715C195.107 154.715 187.697 148.011 185.292 137.737C184.197 133.06 181.76 130.562 180.314 129.56C178.868 128.558 168.298 127.446 166.502 127.561C164.705 127.676 165.954 133.12 165.954 133.12Z" fill="#ECECEC" stroke="#263238" stroke-linecap="round" stroke-linejoin="round"/>
<path d="M165.954 133.12C165.954 133.12 166.288 131.674 166.956 131.893C167.624 132.112 173.293 135.344 173.851 135.009C174.41 134.675 168.074 127.013 166.852 125.918C166.102 125.239 165.282 124.642 164.404 124.138V126.252L165.954 133.12Z" fill="#ECECEC" stroke="#263238" stroke-linecap="round" stroke-linejoin="round"/>
<path d="M176.749 133.23C176.749 133.23 180.637 145.793 181.086 151.243Z" fill="white"/>
<path d="M176.749 133.23C176.749 133.23 180.637 145.793 181.086 151.243" stroke="#263238" stroke-linecap="round" stroke-linejoin="round"/>
<path d="M178.967 158.373C178.967 158.373 181.229 149.32 181.771 148.772C182.313 148.225 186.755 146.33 187.116 146.242C187.478 146.155 190.375 148.23 190.824 148.685C191.273 149.139 193.272 150.404 192.91 151.127C192.549 151.85 191.371 151.308 190.72 151.308C190.068 151.308 187.1 153.209 186.919 153.499C186.738 153.789 185.741 156.035 185.38 156.67C185.018 157.305 178.967 158.373 178.967 158.373Z" fill="white" stroke="#263238" stroke-linecap="round" stroke-linejoin="round"/>
<path d="M191.651 149.419C191.651 149.419 190.462 148.942 190.106 149.118C189.75 149.293 185.517 151.264 185.281 151.56C185.046 151.856 184.734 152.338 184.734 152.338" stroke="#263238" stroke-linecap="round" stroke-linejoin="round"/>
<path d="M183.611 150.969C184.011 150.439 184.494 149.977 185.04 149.599C185.758 149.178 188.261 148.225 188.556 148.11C189.031 148.048 189.511 148.048 189.986 148.11" stroke="#263238" stroke-linecap="round" stroke-linejoin="round"/>
<path d="M188.14 147.036C188.14 147.036 183.375 148.762 183.074 149.178L182.779 149.599" stroke="#263238" stroke-linecap="round" stroke-linejoin="round"/>
<path d="M183.529 156.911C183.529 156.911 188.091 153.685 190.101 152.798C192.111 151.911 196.218 153.576 196.996 154.578C197.774 155.58 198.776 160.361 198.639 163.916C198.502 167.47 198.42 169.031 195.972 169.809C193.957 170.36 191.915 170.806 189.854 171.145C189.526 171.254 189.192 164.474 187.078 160.805C184.964 157.136 183.529 156.911 183.529 156.911Z" fill="#ECECEC" stroke="#263238" stroke-linecap="round" stroke-linejoin="round"/>
<path d="M177.745 159.135C177.745 159.135 178.841 171.813 179.75 173.374C180.659 174.935 182.861 174.595 185.199 174.042C187.538 173.489 190.977 172.706 191.092 171.928C191.207 171.15 191.092 163.713 189.865 160.586C188.639 157.459 186.53 155.252 184.865 155.695C183.2 156.139 177.745 157.245 177.745 159.135Z" fill="#ECECEC" stroke="#263238" stroke-linecap="round" stroke-linejoin="round"/>
<path d="M167.466 180.012L181.048 168.33L175.347 164.529L164.481 169.327C164.481 169.327 167.378 177.021 167.466 180.012Z" fill="white" stroke="#263238" stroke-linecap="round" stroke-linejoin="round"/>
<path d="M160.861 186.441C160.861 186.441 162.307 186.441 164.3 184.798C166.294 183.155 168.101 182.06 167.559 177.465C167.017 172.87 164.749 165.783 163.665 164.869C162.58 163.954 155.609 165.049 155.45 165.504C155.291 165.958 160.97 174.195 161.425 178.993C161.879 183.791 160.861 186.441 160.861 186.441Z" fill="#ECECEC" stroke="#263238" stroke-linecap="round" stroke-linejoin="round"/>
<path d="M136.955 140.262C136.955 140.262 135.936 138.312 134.271 140.01C132.606 141.708 131.703 146.511 132.88 152.305C134.058 158.099 137.316 182.367 138.587 185.351C139.858 188.336 141.03 191.146 143.291 191.239C145.553 191.332 152.98 190.33 158.051 188.342C163.123 186.354 162.849 180.373 161.129 175.198C159.409 170.022 156.238 165.778 154.338 164.513C152.438 163.247 151.441 161.615 149.453 157.902C147.465 154.189 142.952 144.791 141.665 143.444" fill="#ECECEC"/>
<path d="M136.955 140.262C136.955 140.262 135.936 138.312 134.271 140.01C132.606 141.708 131.703 146.511 132.88 152.305C134.058 158.099 137.316 182.367 138.587 185.351C139.858 188.336 141.03 191.146 143.291 191.239C145.553 191.332 152.98 190.33 158.051 188.342C163.123 186.354 162.849 180.373 161.129 175.198C159.409 170.022 156.238 165.778 154.338 164.513C152.438 163.247 151.441 161.615 149.453 157.902C147.465 154.189 142.952 144.791 141.665 143.444" stroke="#263238" stroke-linecap="round" stroke-linejoin="round"/>
<path d="M145.8 174.081C145.36 174.482 144.889 174.848 144.392 175.176" stroke="#263238" stroke-linecap="round" stroke-linejoin="round"/>
<path d="M151.381 166.271C150.179 168.645 148.699 170.868 146.972 172.892" stroke="#263238" stroke-linecap="round" stroke-linejoin="round"/>
<path d="M180.232 160.548C180.232 160.548 166.923 161.813 163.484 161.72C160.045 161.626 155.154 159.819 155.154 159.819C155.154 159.819 149.272 157.376 148.001 156.741C146.731 156.106 143.746 156.106 142.93 156.473C142.114 156.84 140.307 158.28 140.58 159.211C140.854 160.142 141.933 159.48 142.481 159.025C142.927 158.695 143.413 158.423 143.927 158.214L146.824 158.844L147.372 159.573C147.372 159.573 143.39 160.296 142.848 160.569C142.306 160.843 140.767 164.277 140.493 165.006C140.219 165.734 140.493 165.635 141.041 165.635H141.588C141.588 165.635 141.32 167.087 141.862 167.278C142.292 167.359 142.737 167.295 143.127 167.098C143.127 167.098 143.762 167.733 144.036 167.733C145.247 167.199 146.424 166.593 147.563 165.92C148.018 165.646 151.912 166.468 152.909 166.468C153.905 166.468 157.706 166.38 157.706 166.38C157.706 166.38 175.993 171.627 178.441 171.994C180.889 172.361 182.516 172.262 183.419 169.546C184.323 166.829 182.318 160.909 180.232 160.548Z" fill="white" stroke="#263238" stroke-linecap="round" stroke-linejoin="round"/>
<path d="M143.111 167.065C143.111 167.065 145.559 164.326 146.189 163.987C146.806 163.675 147.443 163.402 148.095 163.171" stroke="#263238" stroke-linecap="round" stroke-linejoin="round"/>
<path d="M141.572 165.613L144.108 162.629L146.824 161.539" stroke="#263238" stroke-linecap="round" stroke-linejoin="round"/>
<path d="M76.7659 87.614C77.3857 87.9624 78.0321 88.2609 78.6992 88.5067C79.8877 88.9503 82.8615 89.9909 84.1759 91.4806C85.4903 92.9702 85.0686 96.5356 85.0686 96.5356" stroke="#263238" stroke-linecap="round" stroke-linejoin="round"/>
<path d="M59.7882 99.9805L58.6271 102.483" stroke="#263238" stroke-linecap="round" stroke-linejoin="round"/>
<path d="M50.3956 92.1325C50.3956 92.1325 49.5851 95.9662 48.7526 96.8424C47.9201 97.7187 46.6331 98.7593 47.0658 100.676C47.4984 102.593 50.0232 103.792 50.0122 104.11C50.0013 104.428 45.4666 105.298 45.5761 106.75C45.6856 108.201 46.9343 109.943 46.9343 109.943C46.9343 109.943 43.5552 111.038 43.2704 112.971C42.9856 114.905 44.1357 116.805 44.1193 117.522C44.1029 118.24 42.0655 119.834 42.6735 121.115C43.2814 122.397 44.7217 122.211 44.7984 122.468C44.8751 122.725 43.966 123.744 43.9495 124.385C43.9713 124.82 44.1283 125.237 44.3986 125.579H71.3714L63.704 85.6809L53.5502 89.5913L50.3956 92.1325Z" fill="#C4C4C4" stroke="#263238" stroke-linecap="round" stroke-linejoin="round"/>
<path d="M86.9417 182.684C86.9417 182.684 92.5005 195.341 93.2344 198.452C93.9683 201.562 94.3297 215.391 93.1522 220.78C91.0437 230.589 84.9974 239.888 84.9974 239.888H54.3607L48.0406 210.385L57.2689 181.644L86.9417 182.684Z" fill="white" stroke="#263238" stroke-linecap="round" stroke-linejoin="round"/>
<path d="M81.8593 207.083L79.2798 213.759L80.5065 239.746" stroke="#263238" stroke-linecap="round" stroke-linejoin="round"/>
<path d="M86.4542 174.277C86.4542 174.277 91.8652 178.883 92.5169 180.608C93.1687 182.334 93.5794 193.753 93.8752 195.686C94.1709 197.619 92.862 199.487 92.862 199.487L88.1849 187.86C88.1849 187.86 87.7358 182.684 87.6372 182.339C87.5386 181.994 86.6788 179.228 86.6788 179.228L86.4542 174.277Z" fill="white" stroke="#263238" stroke-linecap="round" stroke-linejoin="round"/>
<path d="M90.9232 184.87C90.9232 184.87 90.9889 186.94 91.1861 188.435C91.3833 189.93 92.0021 192.696 90.7206 193.364" fill="white"/>
<path d="M90.9232 184.87C90.9232 184.87 90.9889 186.94 91.1861 188.435C91.3833 189.93 92.0021 192.696 90.7206 193.364" stroke="#263238" stroke-linecap="round" stroke-linejoin="round"/>
<path d="M66.8257 125.245L74.1864 125.475L79.4495 125.65L85.567 130.771C85.567 130.771 90.7042 156.325 91.1259 157.935C91.5476 159.545 86.7445 171.627 86.3885 172.782C86.0325 173.938 86.9362 182.684 86.9362 182.684C86.9362 182.684 84.5812 184.875 76.9576 185.905C69.3341 186.934 60.5275 183.714 60.5275 183.714C60.5275 183.714 66.3054 168.522 67.5432 160.345C67.5432 160.345 68.6385 144.577 68.2606 140.081C67.8827 135.585 66.8257 125.245 66.8257 125.245Z" fill="#C4C4C4" stroke="#263238" stroke-linecap="round" stroke-linejoin="round"/>
<path d="M85.1727 163.067L73.2554 169.113" stroke="#263238" stroke-linecap="round" stroke-linejoin="round"/>
<path d="M84.4771 165.143L78.9511 167.903" stroke="#263238" stroke-linecap="round" stroke-linejoin="round"/>
<path d="M64.7939 116.783C64.7939 116.783 69.219 132.118 69.7941 134.829C70.3691 137.54 76.0321 140.733 79.5098 138.975C82.9875 137.217 81.8647 133.87 81.2787 131.795C80.6927 129.719 79.4221 125.65 79.4221 125.65L80.7585 113.201C80.7585 113.201 76.5633 118.798 75.0408 119.428C73.5182 120.058 64.7939 116.783 64.7939 116.783Z" fill="white" stroke="#263238" stroke-linecap="round" stroke-linejoin="round"/>
<path d="M73.0746 120.819L78.8745 126.417L80.3039 114.406L73.0746 120.819Z" fill="#263238" stroke="#263238" stroke-linecap="round" stroke-linejoin="round"/>
<path d="M79.0826 125.803L78.7759 131.302" stroke="#263238" stroke-linecap="round" stroke-linejoin="round"/>
<path d="M79.4714 124.385C79.4714 124.385 87.6865 147.809 88.5792 153.099C89.4719 158.39 89.6745 159.545 89.7567 161.391C89.8388 163.236 88.3492 167.256 88.3492 167.256C88.3492 167.256 94.16 160.137 94.1983 153.91C94.2366 147.683 90.0141 128.919 88.0425 127.78C80.2108 123.257 79.4714 124.385 79.4714 124.385Z" fill="#263238" stroke="#263238" stroke-linecap="round" stroke-linejoin="round"/>
<path d="M87.0895 135.946C87.0895 135.946 90.6877 146.445 90.1072 154.326" stroke="#ECECEC" stroke-linecap="round" stroke-linejoin="round"/>
<path d="M59.2624 98.4361L62.9811 93.173L80.1944 110.649C80.1944 110.649 79.1483 120.863 79.1428 121.181C79.1374 121.498 80.2108 123.256 80.2108 123.256C80.5307 123.543 80.8173 123.864 81.0652 124.215C81.4485 124.763 81.0651 124.763 80.9501 125.568C80.8351 126.373 81.3992 126.767 81.7881 127.167C82.3777 127.597 83.011 127.964 83.6775 128.262C84.2252 128.58 83.7323 129.297 83.3161 130.015C82.9769 130.529 82.7699 131.119 82.7136 131.732C82.6572 132.346 82.7532 132.963 82.993 133.531C83.6721 134.966 84.0883 134.725 85.2494 135.842C86.4104 136.959 84.7017 138 84.7017 138C84.7017 138 85.5834 137.759 86.3064 137.518C86.4675 137.473 86.6172 137.394 86.7454 137.286C86.8735 137.179 86.9771 137.045 87.0492 136.894C87.1214 136.743 87.1603 136.578 87.1635 136.411C87.1667 136.244 87.134 136.078 87.0676 135.924C86.7609 135.376 86.164 133.531 86.4159 133.186C86.6678 132.841 88.9242 131.751 89.5814 130.875C90.2386 129.998 89.5267 129.834 90.0962 129.516C90.6658 129.199 91.794 128.481 92.0624 127.364C92.3307 126.247 91.0054 124.889 91.4106 124.489C91.8159 124.089 93.3549 121.635 93.3713 120.912C93.3877 120.19 92.4786 118.979 92.4786 118.979C92.4786 118.979 93.0756 118.503 93.448 116.192C93.8204 113.88 92.0076 113.157 91.8762 111.881C91.7447 110.605 93.6287 108.847 93.6561 104.378C93.6835 99.9093 86.2954 98.5511 86.0709 97.9979C85.8463 97.4448 86.1037 96.5576 85.9723 95.3636C85.8408 94.1697 82.9437 92.0776 82.9437 92.0776C82.9437 92.0776 83.2887 90.8837 83.5461 90.0841C83.8035 89.2845 83.4256 88.567 82.0181 87.291C80.6106 86.0149 73.803 80.0289 70.9606 79.3881C68.1182 78.7473 63.2932 81.8636 62.7456 82.1812C62.1979 82.4989 57.6577 81.3871 56.2776 82.5043C54.8975 83.6216 54.4484 85.5329 54.0869 86.338C53.7254 87.1431 52.5479 87.1376 51.8141 87.9372C51.0802 88.7368 49.8698 95.6758 49.8698 95.6758" fill="#C4C4C4"/>
<path d="M59.2624 98.4361L62.9811 93.173L80.1944 110.649C80.1944 110.649 79.1483 120.863 79.1428 121.181C79.1374 121.498 80.2108 123.256 80.2108 123.256C80.5307 123.543 80.8173 123.864 81.0652 124.215C81.4485 124.763 81.0651 124.763 80.9501 125.568C80.8351 126.373 81.3992 126.767 81.7881 127.167C82.3777 127.597 83.011 127.964 83.6775 128.262C84.2252 128.58 83.7323 129.297 83.3161 130.015C82.9769 130.529 82.7699 131.119 82.7136 131.732C82.6572 132.346 82.7532 132.963 82.993 133.531C83.6721 134.966 84.0883 134.725 85.2494 135.842C86.4104 136.959 84.7017 138 84.7017 138C84.7017 138 85.5834 137.759 86.3064 137.518C86.4675 137.473 86.6172 137.394 86.7454 137.286C86.8735 137.179 86.9771 137.045 87.0492 136.894C87.1214 136.743 87.1603 136.578 87.1635 136.411C87.1667 136.244 87.134 136.078 87.0676 135.924C86.7609 135.376 86.164 133.531 86.4159 133.186C86.6678 132.841 88.9242 131.751 89.5814 130.875C90.2386 129.998 89.5267 129.834 90.0962 129.516C90.6658 129.199 91.794 128.481 92.0624 127.364C92.3307 126.247 91.0054 124.889 91.4106 124.489C91.8159 124.089 93.3549 121.635 93.3713 120.912C93.3877 120.19 92.4786 118.979 92.4786 118.979C92.4786 118.979 93.0756 118.503 93.448 116.192C93.8204 113.88 92.0076 113.157 91.8762 111.881C91.7447 110.605 93.6287 108.847 93.6561 104.378C93.6835 99.9093 86.2954 98.5511 86.0709 97.9979C85.8463 97.4448 86.1037 96.5576 85.9723 95.3636C85.8408 94.1697 82.9437 92.0776 82.9437 92.0776C82.9437 92.0776 83.2887 90.8837 83.5461 90.0841C83.8035 89.2845 83.4256 88.567 82.0181 87.291C80.6106 86.0149 73.803 80.0289 70.9606 79.3881C68.1182 78.7473 63.2932 81.8636 62.7456 82.1812C62.1979 82.4989 57.6577 81.3871 56.2776 82.5043C54.8975 83.6216 54.4484 85.5329 54.0869 86.338C53.7254 87.1431 52.5479 87.1376 51.8141 87.9372C51.0802 88.7368 49.8698 95.6758 49.8698 95.6758" stroke="#263238" stroke-linecap="round" stroke-linejoin="round"/>
<path d="M66.3492 122.659C66.3492 122.659 74.6793 151.949 75.0463 155.75C75.4132 159.551 62.3786 184.409 59.7115 189.59C57.0443 194.771 51.2609 210.539 50.3244 215.944C49.3879 221.35 48.6814 227.801 48.6814 227.801C48.6814 227.801 41.7424 224.466 37.1803 221.585C32.6182 218.704 31.8789 217.1 32.2513 216.519C32.6237 215.939 34.5132 208.808 34.5132 208.808C34.5132 208.808 30.5918 204.427 30.8328 203.978C31.0738 203.528 39.9899 172.897 39.9899 172.897C39.9899 172.897 42.3394 123.634 43.2759 123.634C44.2124 123.634 66.3492 122.659 66.3492 122.659Z" fill="#263238" stroke="#263238" stroke-linecap="round" stroke-linejoin="round"/>
<path d="M65.5058 136.647L75.0462 155.75" stroke="#ECECEC" stroke-linecap="round" stroke-linejoin="round"/>
<path d="M48.7526 123.98C48.7526 123.98 41.8793 122.599 40.6854 124.44C39.4915 126.28 28.9488 157.475 28.3026 160.35C27.6563 163.226 47.4163 184.519 47.4163 184.519L57.592 177.728L45.5432 160.805L52.1153 136.636" fill="#263238"/>
<path d="M48.7526 123.98C48.7526 123.98 41.8793 122.599 40.6854 124.44C39.4915 126.28 28.9488 157.475 28.3026 160.35C27.6563 163.226 47.4163 184.519 47.4163 184.519L57.592 177.728L45.5432 160.805L52.1153 136.636" stroke="#263238" stroke-linecap="round" stroke-linejoin="round"/>
<path d="M50.4175 144.156L45.5104 159.321L56.4912 175.778" stroke="#ECECEC" stroke-linecap="round" stroke-linejoin="round"/>
<path d="M51.7593 139.396L51.0528 141.636" stroke="#ECECEC" stroke-linecap="round" stroke-linejoin="round"/>
<path d="M56.4912 175.778L45.4447 184.985L49.136 189.476L60.7521 180.494L56.4912 175.778Z" fill="white" stroke="#263238" stroke-linecap="round" stroke-linejoin="round"/>
<path d="M59.9305 180.954C59.9305 180.954 69.1259 191.086 70.1501 191.546C71.1742 192.006 73.1951 194.191 73.7428 195.226C74.2905 196.261 75.0682 197.647 75.8568 198.222C76.6454 198.797 76.7495 199.487 75.3584 199.832C73.9673 200.177 72.7022 200.292 71.9355 198.682C71.3798 197.578 70.7098 196.535 69.9365 195.571L62.0829 201.442C62.0829 201.442 60.3906 195.226 60.1934 193.961C59.9963 192.696 59.58 190.625 59.58 190.625L54.295 185.56L59.9305 180.954Z" fill="white" stroke="#263238" stroke-linecap="round" stroke-linejoin="round"/>
<path d="M47.0548 115.595C47.0548 115.595 46.2881 120.699 46.7262 122.457C47.1863 124.319 50.9269 123.985 50.1601 126.455C49.9137 127.249 48.9498 128.098 49.251 129.002C49.5522 129.905 50.779 129.976 51.4417 130.502C52.6849 131.466 52.2413 132.507 52.663 133.87C52.9697 134.856 54.0212 135.201 54.306 135.984C54.6401 136.91 53.9938 137.49 55.0234 138.498C56.8198 140.256 58.1671 140.574 58.408 140.415C58.649 140.256 58.1835 139.867 59.3172 139.32C60.4509 138.772 62.6032 137.72 62.2472 136.844L61.4969 135.097C62.0446 136.307 63.6547 135.097 64.1038 134.445C65.1225 132.989 63.5561 131.422 63.7424 129.845C63.945 128.103 65.933 127.205 66.1302 125.464C66.3274 123.722 64.5584 122.561 64.9472 120.978C65.1225 120.261 65.2211 119.467 65.2211 119.467C65.2211 119.467 64.6734 117.867 63.9176 117.309C63.1618 116.75 62.8716 114.516 62.8223 113.716" fill="#C4C4C4"/>
<path d="M47.0548 115.595C47.0548 115.595 46.2881 120.699 46.7262 122.457C47.1863 124.319 50.9269 123.985 50.1601 126.455C49.9137 127.249 48.9498 128.098 49.251 129.002C49.5522 129.905 50.779 129.976 51.4417 130.502C52.6849 131.466 52.2413 132.507 52.663 133.87C52.9697 134.856 54.0212 135.201 54.306 135.984C54.6401 136.91 53.9938 137.49 55.0234 138.498C56.8198 140.256 58.1671 140.574 58.408 140.415C58.649 140.256 58.1835 139.867 59.3172 139.32C60.4509 138.772 62.6032 137.72 62.2472 136.844L61.4969 135.097C62.0446 136.307 63.6547 135.097 64.1038 134.445C65.1225 132.989 63.5561 131.422 63.7424 129.845C63.945 128.103 65.933 127.205 66.1302 125.464C66.3274 123.722 64.5584 122.561 64.9472 120.978C65.1225 120.261 65.2211 119.467 65.2211 119.467C65.2211 119.467 64.6734 117.867 63.9176 117.309C63.1618 116.75 62.8716 114.516 62.8223 113.716" stroke="#263238" stroke-linecap="round" stroke-linejoin="round"/>
<path d="M61.4093 90.3196C61.4093 90.3196 54.9577 99.7012 55.4506 101.684C55.9435 103.666 60.8671 116.389 62.5703 117.648C64.2736 118.908 71.0373 121.887 73.2882 121.98C75.5392 122.074 77.1876 121.17 78.1296 119.636C79.0716 118.103 82.6424 111.876 82.6753 110.523C82.7082 109.17 79.8219 96.1851 79.2852 96.0044C78.7485 95.8237 61.4093 90.3196 61.4093 90.3196Z" fill="white" stroke="black" stroke-linecap="round" stroke-linejoin="round"/>
<path d="M71.2673 100.26C71.2673 100.26 71.0811 102.763 71.3111 103.579C71.5412 104.395 73.6606 107.33 73.7099 107.834C73.7592 108.338 72.9377 108.836 71.7986 109.274" stroke="#263238" stroke-linecap="round" stroke-linejoin="round"/>
<path d="M56.7102 105.534C56.7102 105.534 55.2973 104.274 54.5196 105.808C53.7419 107.341 54.3443 109.417 56.7102 111.131C59.0762 112.845 59.6458 112.84 59.6458 112.84L56.7102 105.534Z" fill="white" stroke="#263238" stroke-linecap="round" stroke-linejoin="round"/>
<path d="M80.3148 99.2247C80.3148 99.2247 81.5909 98.5894 82.1824 100.216C82.7739 101.843 81.8648 105.988 81.8648 105.988L80.3148 99.2247Z" fill="white" stroke="#263238" stroke-linecap="round" stroke-linejoin="round"/>
<path d="M68.0799 112.55C68.0799 112.55 72.2477 112.237 73.2663 111.734C74.285 111.23 76.0704 109.17 76.0704 109.17C76.0704 109.17 76.0704 113.689 73.8797 114.461C72.3024 115.003 68.0799 112.55 68.0799 112.55Z" fill="white" stroke="#263238" stroke-linecap="round" stroke-linejoin="round"/>
<path d="M61.2559 102.702C61.2559 102.702 61.5626 100.32 65.703 99.8818Z" fill="white"/>
<path d="M61.2559 102.702C61.2559 102.702 61.5626 100.32 65.703 99.8818" stroke="#263238" stroke-linecap="round" stroke-linejoin="round"/>
<path d="M71.2071 98.2116C71.2071 98.2116 73.7483 96.0209 76.4976 98.6935Z" fill="white"/>
<path d="M71.2071 98.2116C71.2071 98.2116 73.7483 96.0209 76.4976 98.6935" stroke="#263238" stroke-linecap="round" stroke-linejoin="round"/>
<path d="M66.3931 103.907C66.6121 104.641 66.393 105.37 65.8454 105.55C65.2977 105.731 64.75 105.244 64.531 104.51C64.3119 103.776 64.531 103.053 65.0786 102.867C65.6263 102.68 66.174 103.173 66.3931 103.907Z" fill="#263238"/>
<path d="M74.9093 101.552C75.1284 102.286 74.9093 103.009 74.3617 103.195C73.814 103.381 73.2663 102.894 73.0473 102.16C72.8282 101.426 73.0473 100.698 73.5949 100.517C74.1426 100.336 74.6903 100.818 74.9093 101.552Z" fill="#263238"/>
<path d="M250.728 239.888H5.50305" stroke="#263238" stroke-linecap="round" stroke-linejoin="round"/>
<path d="M263.752 269.888H254.633" stroke="#263238" stroke-linecap="round" stroke-linejoin="round"/>
</svg>
