<svg width="80" height="107" viewBox="0 0 80 107" fill="none" xmlns="http://www.w3.org/2000/svg">
<path d="M75.7028 87.7432C75.145 86.6406 74.3064 85.6964 73.2676 85.0011C72.2287 84.3058 71.0243 83.8827 69.7699 83.7725C69.7699 83.7725 61.4618 84.6064 48.957 85.004C36.4523 85.4016 35.0723 84.4517 35.0723 84.4517C34.4091 85.7828 33.8421 87.1576 33.3756 88.5661C32.8779 88.9637 31.0568 90.4382 30.2311 91.1451C29.2696 91.968 25.3332 93.31 26.3456 97.9545C27.358 102.599 33.4718 103.963 40.8807 104.968C47.9447 105.924 60.1892 105.443 66.1107 103.676C68.373 103.251 70.2733 102.632 71.5289 101.771C76.2061 98.562 77.6936 91.5759 75.7028 87.7432Z" fill="white" stroke="#263238" stroke-linecap="round" stroke-linejoin="round"/>
<path d="M65.7205 72.9095C64.5893 70.5734 62.8926 65.9565 62.8926 65.9565L65.5225 54.7677C65.5225 54.7677 67.9714 49.7973 67.157 45.7769C66.3426 41.7564 65.3133 41.7067 61.7898 40.4752C58.2663 39.2436 55.9814 39.1939 55.0029 38.0066C54.0375 36.763 53.3777 35.3194 53.0744 33.7873C52.9499 32.7932 52.899 31.7163 52.899 31.7163C52.899 31.7163 49.3303 34.4776 43.7481 33.0473C43.991 34.4665 44.0575 35.9091 43.9461 37.3439C43.7199 39.2768 43.1203 39.8401 39.6478 41.3754C36.1752 42.9106 31.1077 44.1367 30.1292 46.7986C29.1508 49.4605 28.9076 53.6963 28.687 60.3676C28.4551 67.42 28.014 68.4693 28.014 68.4693L9.9158 76.0574L9.84228 75.8806C9.84228 75.8806 8.95434 75.4664 8.20213 75.0467C7.44993 74.627 7.00312 75.0467 6.30181 74.2183C5.60051 73.3899 5.32339 71.8546 4.95011 72.4566C4.79922 72.7942 4.74735 73.1661 4.80028 73.5308C4.85321 73.8955 5.00886 74.2387 5.24986 74.5221L5.02364 75.3781L6.15478 79.625C7.02335 79.8044 7.92736 79.7196 8.74507 79.382C9.47466 79.0009 10.1477 78.6309 10.521 78.421C15.0738 77.7141 33.0476 72.683 33.5792 72.4621C34.2013 72.2026 36.588 57.275 36.588 57.275C36.588 57.275 39.0652 64.7802 39.2009 66.0835C39.3367 67.3869 34.5746 85.1255 34.5746 85.1255C34.5746 85.1255 36.6276 86.959 45.4392 86.7823C54.2507 86.6055 65.613 85.3574 67.7056 84.5732L69.7926 83.7835C69.7926 83.7835 66.8516 75.2124 65.7205 72.9095Z" fill="#B2B2B2" stroke="#263238" stroke-linecap="round" stroke-linejoin="round"/>
<path d="M48.5329 40.0884C50.3766 40.0884 53.3006 38.1444 54.2451 36.9239C53.6647 35.9425 53.2575 34.8728 53.0404 33.7595C52.916 32.7654 52.8651 31.6885 52.8651 31.6885C52.8651 31.6885 49.2964 34.4498 43.7142 33.0194C43.9364 34.3349 44.0141 35.6697 43.9461 37.0012C45.4053 38.1665 46.6665 40.0884 48.5329 40.0884Z" fill="#263238" stroke="#263238" stroke-linecap="round" stroke-linejoin="round"/>
<path d="M66.2578 16.9208C66.2578 17.5173 65.6922 18.0751 65.6017 18.6549C65.5112 19.2348 65.9637 19.9307 65.8166 20.505C65.6696 21.0794 64.9683 21.466 64.7534 22.0127C64.5384 22.5594 64.7873 23.3381 64.5102 23.8572C64.233 24.3764 63.4526 24.5752 63.1189 25.0612C62.7852 25.5472 62.8531 26.3535 62.4628 26.7953C62.0726 27.2371 61.2751 27.2592 60.8453 27.6623C60.4154 28.0655 60.3136 28.8607 59.8442 29.2142C59.3748 29.5676 58.5943 29.424 58.091 29.7278C57.5876 30.0315 57.3388 30.8047 56.8128 31.0587C56.2868 31.3128 55.5403 31.0201 54.9917 31.2244C54.4431 31.4287 54.0641 32.1412 53.4985 32.2958C52.933 32.4504 52.2543 32.0252 51.6774 32.1246C51.1005 32.224 50.6028 32.8591 50.0203 32.9143C49.4378 32.9695 48.8439 32.4283 48.2557 32.4283C47.6675 32.4283 47.068 32.9806 46.4912 32.9198C45.9143 32.8591 45.3996 32.2406 44.834 32.1412C44.2685 32.0417 43.5728 32.467 43.0129 32.3179C42.453 32.1688 42.0571 31.4563 41.5141 31.2575C40.9712 31.0587 40.2133 31.3459 39.693 31.0974C39.1727 30.8489 38.9069 30.0702 38.4092 29.772C37.9115 29.4737 37.114 29.6173 36.6502 29.2694C36.1865 28.9215 36.0847 28.1097 35.6435 27.7176C35.2024 27.3255 34.4049 27.2978 34.0204 26.8615C33.6358 26.4253 33.6923 25.6079 33.3587 25.1274C33.025 24.647 32.2275 24.4482 31.9617 23.929C31.6959 23.4099 31.9278 22.6368 31.7072 22.09C31.4866 21.5433 30.7853 21.1567 30.6383 20.5823C30.4912 20.008 30.9154 19.3287 30.8419 18.7378C30.7683 18.1469 30.1745 17.6001 30.1745 17.0037C30.1745 16.4072 30.7401 15.8495 30.8306 15.2696C30.921 14.6897 30.4742 13.9939 30.6156 13.4195C30.757 12.8452 31.4696 12.4586 31.6846 11.9118C31.8995 11.3651 31.6506 10.5864 31.9278 10.0673C32.2049 9.54815 32.9797 9.34934 33.3191 8.86335C33.6584 8.37736 33.5849 7.57107 33.9751 7.12926C34.3654 6.68745 35.1571 6.66536 35.5926 6.26221C36.0281 5.85905 36.1186 5.0638 36.588 4.71035C37.0575 4.35691 37.8436 4.50048 38.347 4.19674C38.8503 3.89299 39.0935 3.12537 39.6251 2.8658C40.1568 2.60624 40.892 2.90445 41.4463 2.70011C42.0005 2.49578 42.3738 1.78336 42.9394 1.63425C43.505 1.48514 44.178 1.89933 44.7605 1.79993C45.343 1.70052 45.8294 1.06542 46.412 1.0102C46.9945 0.95497 47.594 1.49619 48.1822 1.49619C48.7704 1.49619 49.3699 0.943919 49.9411 1.00467C50.5123 1.06542 51.0609 1.66738 51.6265 1.78336C52.1921 1.89933 52.8877 1.45754 53.442 1.60665C53.9962 1.75576 54.4035 2.46817 54.9464 2.66698C55.4893 2.86579 56.2416 2.57862 56.7675 2.82714C57.2935 3.07566 57.5537 3.85434 58.0514 4.15256C58.5491 4.45078 59.3409 4.3072 59.8103 4.65512C60.2797 5.00305 60.3759 5.81487 60.817 6.20698C61.2581 6.59908 62.0499 6.62669 62.4345 7.06297C62.8191 7.49926 62.7626 8.31661 63.1019 8.79708C63.4412 9.27755 64.233 9.47635 64.4989 9.99548C64.7647 10.5146 64.5328 11.2878 64.7477 11.8345C64.9626 12.3813 65.6752 12.7678 65.8223 13.3422C65.9693 13.9165 65.5395 14.5958 65.6187 15.1867C65.6979 15.7777 66.2578 16.3244 66.2578 16.9208Z" fill="#263238" stroke="#263238" stroke-linecap="round" stroke-linejoin="round"/>
<path d="M56.9089 22.0129C56.9089 22.0129 58.0061 19.6271 58.9506 19.9364C59.8951 20.2456 60.2967 23.388 59.1203 24.7742C57.9439 26.1603 56.9994 25.702 56.7619 25.3927C56.5243 25.0834 56.9089 22.0129 56.9089 22.0129Z" fill="#B2B2B2" stroke="#263238" stroke-linecap="round" stroke-linejoin="round"/>
<path d="M39.1274 20.7484C38.8712 20.7322 38.6142 20.7684 38.3731 20.8547C38.132 20.941 37.912 21.0756 37.7273 21.2497C37.5425 21.4239 37.397 21.6339 37.3002 21.8661C37.2034 22.0984 37.1573 22.3478 37.1649 22.5985C37.0122 24.5922 39.3763 25.4316 39.6874 25.5862C39.9984 25.7409 39.1274 20.7484 39.1274 20.7484Z" fill="#B2B2B2" stroke="#263238" stroke-linecap="round" stroke-linejoin="round"/>
<path d="M38.4883 16.9099C38.4883 16.9099 38.9804 25.1275 40.4056 29.1204C41.8308 33.1132 46.559 37.1723 48.6064 36.9349C50.6537 36.6974 52.4579 35.5432 54.262 32.8537C54.9268 31.8045 55.4856 30.6948 55.9305 29.5401C56.8605 27.1934 57.2971 24.6879 57.2143 22.1729L57.056 16.9596C57.056 16.9596 54.3639 11.3541 47.758 11.5253C42.9563 11.6082 40.4452 14.0602 38.4883 16.9099Z" fill="#B2B2B2" stroke="#263238" stroke-linecap="round" stroke-linejoin="round"/>
<path d="M57.056 16.9435C57.056 16.9435 54.3639 11.338 47.758 11.5092C42.9563 11.6307 40.4452 14.0607 38.4883 16.9103C38.4883 16.9103 38.5279 17.5951 38.6184 18.661C41.2397 16.4525 44.6207 15.2961 48.0804 15.4247C52.8877 15.6346 55.6986 17.3245 57.1012 18.5174L57.056 16.9435Z" fill="#ECECEC" stroke="#263238" stroke-linecap="round" stroke-linejoin="round"/>
<path d="M44.4834 23.2333C44.4834 23.8904 44.1836 23.8739 43.816 23.8739C43.4484 23.8739 43.1486 23.8739 43.143 23.2333C43.1373 22.5926 43.4427 22.0459 43.8104 22.0459C44.178 22.0459 44.4834 22.5761 44.4834 23.2333Z" fill="#263238"/>
<path d="M51.9545 23.2056C51.9545 23.8628 51.6604 23.8407 51.2928 23.8462C50.9252 23.8518 50.6198 23.8462 50.6198 23.2056C50.6198 22.565 50.9139 22.0183 51.2872 22.0127C51.6604 22.0072 51.9545 22.5595 51.9545 23.2056Z" fill="#263238"/>
<path d="M41.3275 21.1293C41.7725 20.6867 42.3171 20.3515 42.9179 20.1502C43.5187 19.9489 44.1592 19.8871 44.7888 19.9695" stroke="#263238" stroke-linecap="round" stroke-linejoin="round"/>
<path d="M49.5848 19.7267C49.5848 19.7267 51.9432 18.6222 53.9962 21.019" stroke="#263238" stroke-linecap="round" stroke-linejoin="round"/>
<path d="M46.378 26.5195C46.378 26.5195 48.1935 27.9002 49.7714 26.5195" stroke="#263238" stroke-linecap="round" stroke-linejoin="round"/>
<path d="M42.2267 24.3546C43.1931 24.1791 44.1817 24.153 45.1564 24.2773" stroke="#263238" stroke-width="0.5" stroke-linecap="round" stroke-linejoin="round"/>
<path d="M50.32 24.1998C51.2959 24.0336 52.2978 24.0864 53.2497 24.3544" stroke="#263238" stroke-width="0.5" stroke-linecap="round" stroke-linejoin="round"/>
<path d="M46.7739 24.5753L48.9344 23.8242" stroke="#263238" stroke-width="0.5" stroke-linecap="round" stroke-linejoin="round"/>
<path d="M46.8531 23.9736L48.4706 23.2998" stroke="#263238" stroke-width="0.5" stroke-linecap="round" stroke-linejoin="round"/>
<path d="M45.6767 29.1812C45.6767 29.1812 48.5894 30.9429 50.7103 28.7891" stroke="#263238" stroke-linecap="round" stroke-linejoin="round"/>
<path d="M67.683 84.5621L69.7699 83.7724C69.7699 83.7724 66.8516 75.2124 65.7205 72.8818C64.5893 70.5513 62.8926 65.9288 62.8926 65.9288L65.1096 56.5128C62.4684 55.9605 59.7481 51.4375 59.3974 48.3228C59.1259 45.8762 59.3635 41.9994 59.5501 39.7572L58.3568 39.4424C58.1147 42.6453 58.0524 45.8587 58.1701 49.0683C49.6866 51.443 40.711 49.5322 40.711 49.5322V40.8507C40.383 41.0053 40.021 41.171 39.6195 41.3477C39.5742 42.7946 39.4385 45.6167 39.0539 48.3725C38.5279 52.3156 36.5484 57.2473 36.5484 57.2473C36.5484 57.2473 39.0256 64.7525 39.1614 66.0559C39.2971 67.3592 34.535 85.0978 34.535 85.0978C34.535 85.0978 36.588 86.9313 45.3996 86.7546C54.2111 86.5779 65.5904 85.3463 67.683 84.5621Z" fill="#263238" stroke="#263238" stroke-linecap="round" stroke-linejoin="round"/>
<path d="M35.9602 83.2694L47.7184 73.5993L17.9186 71.2246L6.22264 80.5081L35.9602 83.2694Z" fill="#828282" stroke="#263238" stroke-linecap="round" stroke-linejoin="round"/>
<path d="M6.22264 80.5085L35.9602 83.2698L31.3 62.4827L1.13252 60.605L6.22264 80.5085Z" fill="#263238" stroke="#263238" stroke-linecap="round" stroke-linejoin="round"/>
<path d="M31.8768 65.0615C26.0458 65.9893 23.6874 71.5506 17.0872 76.8247C14.8629 78.6789 12.2517 80.0376 9.43508 80.8065L35.9602 83.2696L31.8768 65.0615Z" fill="#4C4C4C" stroke="#263238" stroke-linecap="round" stroke-linejoin="round"/>
<path d="M4.94445 78.2222C5.03075 78.7737 5.29415 79.2842 5.69667 79.6801C6.3301 80.2324 7.73836 80.1827 8.02115 79.7243C8.30393 79.2659 7.69312 79.1721 6.89001 78.8462C6.25828 78.5913 5.60795 78.3827 4.94445 78.2222Z" fill="#B2B2B2" stroke="#263238" stroke-linecap="round" stroke-linejoin="round"/>
<path d="M4.76349 77.6752C4.76349 77.6752 4.41282 78.2826 5.95683 78.7355C7.50083 79.1883 8.31524 78.6692 8.47926 78.1059C8.51859 78.0022 8.53324 77.8911 8.52208 77.781C8.51092 77.6709 8.47425 77.5647 8.41485 77.4705C8.35544 77.3764 8.27486 77.2966 8.17921 77.2373C8.08357 77.178 7.97536 77.1408 7.86279 77.1284C7.52345 77.1284 5.2838 77.4266 5.03495 77.4377C4.7861 77.4487 4.68431 77.2333 4.76349 77.6752Z" fill="#B2B2B2" stroke="#263238" stroke-linecap="round" stroke-linejoin="round"/>
<path d="M4.11873 75.9136C4.11873 75.9136 4.11873 77.2169 4.34495 77.5428C4.57118 77.8686 6.60724 78.1889 7.55174 77.6256C8.49624 77.0623 8.23607 76.0296 7.63091 76.0572C7.02575 76.0848 4.11873 75.9136 4.11873 75.9136Z" fill="#B2B2B2" stroke="#263238" stroke-linecap="round" stroke-linejoin="round"/>
<path d="M4.36758 73.1855C4.36758 73.1855 3.16291 75.5106 4.01127 76.1733C4.85962 76.836 7.31418 76.6261 7.6818 75.7094C8.04942 74.7926 7.11624 74.9362 6.09822 74.7816L4.80872 74.5828L4.36758 73.1855Z" fill="#B2B2B2" stroke="#263238" stroke-linecap="round" stroke-linejoin="round"/>
<path d="M60.8962 101.627C60.8962 101.627 43.143 97.3193 35.9603 92.1115C28.7775 86.9037 24.3548 82.6734 18.8235 81.5136C13.2923 80.3539 9.06181 83.3692 9.08444 87.3731C9.10706 91.377 11.9123 94.0444 18.9706 97.7004C26.0289 101.356 36.6729 103.643 44.161 104.786C51.6491 105.929 60.0591 105.493 61.6371 105.493C63.215 105.493 65.811 105.631 69.6229 105.283C71.3133 105.181 72.8997 104.452 74.0566 103.244C75.2135 102.036 75.8531 100.442 75.8442 98.7883C75.8838 97.4022 73.2652 95.2925 70.9746 96.3639C68.6841 97.4353 64.4706 101.285 60.8962 101.627Z" fill="#A1A1A1" stroke="#263238" stroke-linecap="round" stroke-linejoin="round"/>
<path d="M52.4918 99.2689C46.8927 97.5127 39.8683 94.9447 35.9602 92.0895C28.7719 86.8872 24.3548 82.6514 18.8405 81.4916C13.3262 80.3319 9.07877 83.3472 9.1014 87.3511C9.12402 91.355 11.9292 94.0224 18.9875 97.6784C26.0458 101.334 36.6898 103.621 44.178 104.764C46.2706 105.084 48.4367 105.283 50.5067 105.399C50.5067 105.112 50.5067 104.814 50.535 104.488C50.6141 102.671 51.6774 100.6 52.4918 99.2689Z" fill="white" stroke="#263238" stroke-linecap="round" stroke-linejoin="round"/>
<path d="M70.9859 96.3471C69.2892 97.1424 66.5462 99.4564 63.7805 100.765C63.6588 100.968 63.5923 101.198 63.5873 101.433C63.5824 101.668 63.6392 101.9 63.7523 102.107C64.2217 102.887 64.8951 103.532 65.7035 103.974C65.7035 103.974 64.5724 105.244 61.6371 105.482C63.2206 105.437 65.8109 105.62 69.6229 105.272C71.3133 105.17 72.8997 104.441 74.0566 103.233C75.2135 102.025 75.8531 100.431 75.8441 98.7771C75.895 97.3854 73.2765 95.2757 70.9859 96.3471Z" fill="#263238" stroke="#263238" stroke-linecap="round" stroke-linejoin="round"/>
<path d="M24.2812 101.395C24.2812 101.395 42.1362 97.529 49.466 92.5145C56.7958 87.4999 61.343 83.3801 66.8686 82.3639C72.3942 81.3477 76.5737 84.4735 76.4493 88.4774C76.3249 92.4813 73.4461 95.0714 66.2691 98.5396C59.092 102.008 48.4084 104.018 40.892 104.968C33.3756 105.918 24.9995 105.283 23.4216 105.2C20.758 105.192 18.0965 105.054 15.4471 104.786C13.7577 104.643 12.1886 103.873 11.0621 102.635C9.93561 101.398 9.33722 99.786 9.38983 98.131C9.38983 96.7448 12.065 94.7069 14.3216 95.8391C16.5782 96.9712 20.7125 100.936 24.2812 101.395Z" fill="#B2B2B2" stroke="#263238" stroke-linecap="round" stroke-linejoin="round"/>
<path d="M66.8969 82.364C61.3543 83.3802 56.8184 87.5 49.4943 92.5146C45.4052 95.3035 38.0529 97.761 32.3519 99.3516C32.0104 100.929 31.9797 102.556 32.2614 104.145C32.3576 104.637 32.4481 105.079 32.5442 105.482C35.3384 105.468 38.1294 105.297 40.9033 104.968C48.4197 104.018 59.1203 102.008 66.2804 98.5397C73.4405 95.0715 76.3192 92.4649 76.4606 88.4775C76.602 84.4902 72.4168 81.3534 66.8969 82.364Z" fill="white" stroke="#263238" stroke-linecap="round" stroke-linejoin="round"/>
<path d="M18.8235 104.217C19.6022 103.686 20.2928 103.042 20.8709 102.306C21.4365 101.439 20.7465 100.18 20.6447 99.9979C18.1957 98.6007 15.86 96.5905 14.3555 95.8394C12.0933 94.7349 9.42378 96.7451 9.42378 98.1313C9.37117 99.7863 9.96957 101.398 11.0961 102.636C12.2226 103.873 13.7917 104.643 15.481 104.786C17.4824 105.015 19.495 105.138 21.51 105.156C19.9547 104.703 18.8235 104.217 18.8235 104.217Z" fill="#263238" stroke="#263238" stroke-linecap="round" stroke-linejoin="round"/>
<path d="M15.6224 104.802C15.0568 104.509 14.4913 104.195 13.9879 103.913C12.5231 103.035 10.4248 101.704 10.323 99.4949C10.2495 97.9762 11.4541 96.4023 12.1894 95.5684C10.668 95.8942 9.40114 97.1589 9.40114 98.1088C9.34853 99.7638 9.94693 101.376 11.0734 102.613C12.1999 103.851 13.769 104.62 15.4584 104.764L15.6224 104.802Z" fill="white" stroke="#263238" stroke-linecap="round" stroke-linejoin="round"/>
<path d="M63.3394 51.9899C63.3394 51.9899 72.3885 74.1245 73.9325 74.9805C75.4765 75.8365 79.1527 75.5328 78.2139 70.4851C77.275 65.4374 73.1803 50.3276 71.5345 47.0913C70.3278 44.5989 68.2182 42.6314 65.613 41.5687C64.6259 41.1649 63.5763 40.9259 62.508 40.8618" fill="#B2B2B2"/>
<path d="M63.3394 51.9899C63.3394 51.9899 72.3885 74.1245 73.9325 74.9805C75.4765 75.8365 79.1527 75.5328 78.2139 70.4851C77.275 65.4374 73.1803 50.3276 71.5345 47.0913C70.3278 44.5989 68.2182 42.6314 65.613 41.5687C64.6259 41.1649 63.5763 40.9259 62.508 40.8618" stroke="#263238" stroke-linecap="round" stroke-linejoin="round"/>
<path d="M73.9552 68.7451C69.9813 69.8458 65.8844 70.4671 61.7558 70.5952C55.3084 70.7277 55.3819 70.7222 52.9895 69.9822C50.5972 69.2422 46.3328 67.7731 44.7492 67.5412C43.1656 67.3092 42.2494 66.8509 41.7177 67.4639C37.0462 72.8484 36.3562 73.0251 36.4523 73.478C36.5485 73.9309 38.6297 72.9257 38.6297 72.9257C38.6297 72.9257 37.459 74.8255 37.9341 74.8807C38.4975 74.8361 39.0506 74.7075 39.5742 74.4997C39.5742 74.4997 39.6082 75.2673 40.2303 75.1624C40.8163 74.9787 41.3641 74.6945 41.8478 74.323C41.8478 74.323 41.1465 76.2006 41.9836 75.549C42.8206 74.8973 45.0885 72.876 45.3204 72.7877C45.5523 72.6993 47.6336 73.3786 48.7138 73.4062C49.6101 73.3837 50.5013 73.267 51.372 73.0583C51.372 73.0583 58.6565 75.5821 65.1549 76.3718C71.6533 77.1616 76.8735 76.0847 78.0725 74.7979C79.2715 73.5111 78.146 71.2579 77.5069 69.5183" fill="#B2B2B2"/>
<path d="M73.9552 68.7451C69.9813 69.8458 65.8844 70.4671 61.7558 70.5952C55.3084 70.7277 55.3819 70.7222 52.9895 69.9822C50.5972 69.2422 46.3328 67.7731 44.7492 67.5412C43.1656 67.3092 42.2494 66.8509 41.7177 67.4639C37.0462 72.8484 36.3562 73.0251 36.4523 73.478C36.5485 73.9309 38.6297 72.9257 38.6297 72.9257C38.6297 72.9257 37.459 74.8255 37.9341 74.8807C38.4975 74.8361 39.0506 74.7075 39.5742 74.4997C39.5742 74.4997 39.6082 75.2673 40.2303 75.1624C40.8163 74.9787 41.3641 74.6945 41.8478 74.323C41.8478 74.323 41.1465 76.2006 41.9836 75.549C42.8206 74.8973 45.0885 72.876 45.3204 72.7877C45.5523 72.6993 47.6336 73.3786 48.7138 73.4062C49.6101 73.3837 50.5013 73.267 51.372 73.0583C51.372 73.0583 58.6565 75.5821 65.1549 76.3718C71.6533 77.1616 76.8735 76.0847 78.0725 74.7979C79.2715 73.5111 78.146 71.2579 77.5069 69.5183" stroke="#263238" stroke-linecap="round" stroke-linejoin="round"/>
<path d="M38.6184 72.909C38.6184 72.909 40.926 69.9655 41.8252 68.9272" stroke="#263238" stroke-linecap="round" stroke-linejoin="round"/>
<path d="M39.5742 74.4942L43.8839 68.9219" stroke="#263238" stroke-linecap="round" stroke-linejoin="round"/>
<path d="M41.8478 74.3174C41.8478 74.3174 44.523 70.8934 45.0716 70.7939" stroke="#263238" stroke-linecap="round" stroke-linejoin="round"/>
</svg>
