<svg width="441" height="305" viewBox="0 0 441 305" fill="none" xmlns="http://www.w3.org/2000/svg">
<path d="M127.267 163.715L116.491 169.667L109.757 162.525L113.797 158.953L120.532 154.191L124.573 149.429L129.961 142.287L134.002 136.334V131.572V124.429L127.267 122.048L116.491 124.429L108.41 128.001L97.6339 136.334L89.5522 143.477L81.4704 155.382L80.1235 161.334L81.4704 166.096V169.667L86.8582 175.62L93.593 180.382L103.022 185.144L113.797 188.715L134.002 197.048L144.777 205.382L150.165 212.524H181.334L317.107 214.5H340.867H374.245H384.428H395.742H415.543V215.5L413.28 217L402.531 218.5L391.216 219.5L375.942 220.5L361.233 221L338.604 221.5H323.896H309.187L284.861 222L264.495 222.5H236.774H206.791H184.162H167.756L151.351 223.5L150.165 231.572L146.124 241.096L136.696 254.191L120.532 269.667L103.022 280.381L88.2052 288.715L69.3478 295.858L53.1843 300.62L41.0617 301.81L30.2861 303L22.2043 301.81L16.8165 300.62L12.7757 298.239L8.73478 295.858L4.69391 291.096L2 286.334V279.191L3.34696 274.429L8.73478 264.905L15.4696 258.953L28.9391 248.239L58.5722 232.763L77.4296 225.62L93.593 220.858L107.063 218.477L120.532 216.096L116.491 212.524L108.41 208.953L97.6339 205.382L86.8582 201.81L81.4704 199.429L73.3887 195.858L66.6539 192.286L61.2661 186.334L58.5722 180.382L57.2252 175.62V166.096L62.613 155.382L73.3887 142.287L86.8582 129.191L101.675 119.668L112.45 113.715L127.267 107.763L139.39 105.382H148.818L156.9 108.953L160.941 114.906V122.048L158.247 131.572L146.124 147.048L136.696 156.572L127.267 163.715Z" stroke="black" stroke-width="3"/>
<path d="M250.325 66.2856L244.937 69.857H236.855L234.161 67.4761L232.814 61.5237V53.1904L236.855 41.2856L244.937 28.1904L255.713 17.4762L265.141 10.3333L278.611 4.38095L292.081 2H304.203L321.714 5.57142L337.877 12.7143L351.347 22.2381L363.469 36.5237L372.898 55.5713L378.286 72.2379L382.327 87.7141L383.674 99.6188V116.285L382.327 130.571L376.939 149.619L367.51 167.476L359.428 178.19L350 186.523L341.918 193.666L328.448 200.809L314.979 205.571L305.55 207.952H297.468H286.693H278.611L267.835 205.571L258.407 202L244.937 191.285L239.549 180.571L235.508 168.666V157.952L236.855 144.857H239.549V149.619L242.243 163.904L247.631 177L258.407 188.904L270.529 197.238L282.652 200.809L294.774 202L305.55 200.809L317.673 197.238L328.448 191.285L340.571 180.571L344.612 173.428L352.694 159.143L358.081 144.857L360.775 128.19L363.469 112.714L362.122 96.0474L360.775 82.9522L356.734 69.857L352.694 57.9523L347.306 47.238L340.571 36.5237L333.836 28.1904L324.407 19.8571L312.285 12.7143L301.509 9.14284L289.387 7.95237L281.305 9.14284L270.529 12.7143L258.407 21.0476L251.672 28.1904L247.631 34.1428L244.937 40.0952V47.238L247.631 53.1904L250.325 56.7618L251.672 61.5237L250.325 66.2856Z" stroke="black" stroke-width="3"/>
<path d="M286.693 30.5714H293.427V36.5237L292.081 41.2856L286.693 49.6189L283.999 59.1427L278.611 76.9998L274.57 96.0474L273.223 110.333L271.876 122.238V132.952V142.476V152L273.223 162.714V172.238L274.57 177V182.952V186.523L271.876 188.904L267.835 175.809L265.141 163.904L263.794 152L261.101 136.524V122.238V105.571V87.7141V76.9998L263.794 65.0951L266.488 53.1904L271.876 41.2856L278.611 34.1428L286.693 30.5714Z" stroke="black" stroke-width="3"/>
<path d="M156.402 172C156.402 172.344 156.3 172.758 156.097 173.242C155.894 173.711 155.628 174.164 155.3 174.602C154.988 175.023 154.636 175.383 154.246 175.68C153.871 175.977 153.503 176.125 153.144 176.125C152.66 176.125 152.246 175.977 151.902 175.68C151.574 175.383 151.41 175.07 151.41 174.742C151.41 174.602 151.457 174.391 151.55 174.109C151.66 173.828 151.792 173.523 151.949 173.195C152.121 172.852 152.316 172.508 152.535 172.164C152.769 171.805 153.011 171.484 153.261 171.203C153.527 170.906 153.785 170.672 154.035 170.5C154.3 170.312 154.558 170.219 154.808 170.219C155.433 170.219 155.855 170.367 156.074 170.664C156.292 170.961 156.402 171.406 156.402 172ZM153.378 188.219C152.832 189.453 152.23 190.586 151.574 191.617C150.933 192.633 150.269 193.508 149.582 194.242C148.894 194.961 148.183 195.523 147.449 195.93C146.73 196.336 146.019 196.539 145.316 196.539C144.785 196.539 144.332 196.422 143.957 196.188C143.582 195.969 143.277 195.664 143.042 195.273C142.792 194.883 142.613 194.43 142.503 193.914C142.394 193.383 142.339 192.812 142.339 192.203C142.339 191.062 142.496 189.938 142.808 188.828C143.121 187.703 143.519 186.609 144.003 185.547C144.503 184.469 145.066 183.414 145.691 182.383C146.316 181.352 146.941 180.352 147.566 179.383C147.707 179.148 147.878 178.938 148.082 178.75C148.285 178.562 148.48 178.469 148.667 178.469C148.933 178.469 149.199 178.516 149.464 178.609C149.73 178.703 149.972 178.828 150.191 178.984C150.41 179.125 150.582 179.289 150.707 179.477C150.847 179.648 150.917 179.828 150.917 180.016C150.917 180.234 150.785 180.594 150.519 181.094C150.253 181.594 149.917 182.195 149.511 182.898C149.105 183.586 148.667 184.352 148.199 185.195C147.746 186.039 147.316 186.914 146.91 187.82C146.503 188.727 146.167 189.641 145.902 190.562C145.636 191.469 145.503 192.336 145.503 193.164C145.503 193.367 145.511 193.57 145.527 193.773C145.558 193.961 145.613 194.133 145.691 194.289C145.785 194.43 145.917 194.547 146.089 194.641C146.277 194.719 146.527 194.758 146.839 194.758C147.167 194.758 147.574 194.562 148.058 194.172C148.558 193.781 149.074 193.266 149.605 192.625C150.152 191.969 150.691 191.234 151.222 190.422C151.769 189.594 152.246 188.75 152.652 187.891C152.777 187.641 152.917 187.516 153.074 187.516C153.183 187.516 153.277 187.547 153.355 187.609C153.433 187.672 153.472 187.766 153.472 187.891C153.472 187.984 153.441 188.094 153.378 188.219ZM157.363 192.977C157.707 192.977 158.16 192.719 158.722 192.203C159.3 191.688 159.902 191.016 160.527 190.188C160.152 189.328 159.964 188.148 159.964 186.648C159.964 185.477 160.074 184.359 160.292 183.297C160.511 182.234 160.808 181.305 161.183 180.508C161.558 179.711 161.988 179.078 162.472 178.609C162.972 178.141 163.496 177.906 164.042 177.906C164.792 177.906 165.371 178.188 165.777 178.75C166.183 179.312 166.386 180.039 166.386 180.93C166.386 181.648 166.308 182.344 166.152 183.016C166.011 183.688 165.792 184.375 165.496 185.078C165.199 185.781 164.816 186.516 164.347 187.281C163.878 188.031 163.332 188.859 162.707 189.766C162.597 189.906 162.488 190.047 162.378 190.188C162.269 190.328 162.167 190.477 162.074 190.633C162.261 190.945 162.511 191.195 162.824 191.383C163.136 191.555 163.511 191.641 163.949 191.641C164.496 191.641 164.98 191.516 165.402 191.266C165.839 191.016 166.23 190.695 166.574 190.305C166.917 189.914 167.23 189.477 167.511 188.992C167.792 188.508 168.058 188.031 168.308 187.562C168.464 187.234 168.628 187.07 168.8 187.07C168.894 187.07 168.98 187.102 169.058 187.164C169.136 187.227 169.175 187.305 169.175 187.398C169.175 187.539 169.144 187.672 169.082 187.797C168.894 188.266 168.636 188.781 168.308 189.344C167.996 189.906 167.613 190.43 167.16 190.914C166.722 191.383 166.214 191.781 165.636 192.109C165.074 192.438 164.449 192.602 163.761 192.602C163.464 192.602 163.097 192.531 162.66 192.391C162.222 192.234 161.785 191.93 161.347 191.477C160.847 192.07 160.316 192.648 159.753 193.211C159.207 193.773 158.644 194.281 158.066 194.734C157.503 195.172 156.933 195.523 156.355 195.789C155.792 196.055 155.253 196.188 154.738 196.188C154.238 196.188 153.816 196.078 153.472 195.859C153.144 195.625 152.871 195.32 152.652 194.945C152.433 194.57 152.277 194.141 152.183 193.656C152.089 193.172 152.042 192.672 152.042 192.156C152.042 191.531 152.097 190.875 152.207 190.188C152.3 189.484 152.433 188.797 152.605 188.125C152.761 187.438 152.941 186.781 153.144 186.156C153.347 185.531 153.542 184.969 153.73 184.469C154.027 183.672 154.363 182.805 154.738 181.867C155.128 180.93 155.574 179.914 156.074 178.82C156.589 177.727 157.183 176.539 157.855 175.258C158.527 173.977 159.308 172.586 160.199 171.086C161.371 169.133 162.378 167.484 163.222 166.141C164.066 164.781 164.777 163.688 165.355 162.859C165.933 162.016 166.386 161.406 166.714 161.031C167.058 160.656 167.3 160.469 167.441 160.469C167.55 160.469 167.667 160.562 167.792 160.75C167.917 160.938 167.98 161.234 167.98 161.641C167.98 161.922 167.894 162.297 167.722 162.766C167.566 163.234 167.378 163.727 167.16 164.242C166.941 164.742 166.714 165.227 166.48 165.695C166.246 166.164 166.058 166.539 165.917 166.82C164.621 169.32 163.488 171.562 162.519 173.547C161.55 175.516 160.707 177.281 159.988 178.844C159.269 180.406 158.675 181.781 158.207 182.969C157.738 184.156 157.363 185.211 157.082 186.133C156.8 187.055 156.597 187.867 156.472 188.57C156.363 189.258 156.308 189.891 156.308 190.469C156.308 191.25 156.402 191.867 156.589 192.32C156.777 192.758 157.035 192.977 157.363 192.977ZM161.347 187.797C161.347 187.984 161.355 188.172 161.371 188.359C161.386 188.547 161.41 188.727 161.441 188.898C161.785 188.383 162.105 187.852 162.402 187.305C162.714 186.758 162.98 186.219 163.199 185.688C163.433 185.141 163.613 184.625 163.738 184.141C163.878 183.641 163.949 183.18 163.949 182.758C163.949 182.148 163.753 181.844 163.363 181.844C163.16 181.859 162.941 182.047 162.707 182.406C162.472 182.75 162.253 183.203 162.05 183.766C161.847 184.328 161.675 184.961 161.535 185.664C161.41 186.367 161.347 187.078 161.347 187.797ZM185.371 188.219C184.964 189.156 184.488 190.102 183.941 191.055C183.41 191.992 182.816 192.836 182.16 193.586C181.503 194.336 180.792 194.953 180.027 195.438C179.261 195.906 178.449 196.141 177.589 196.141C176.949 196.141 176.433 196.039 176.042 195.836C175.667 195.617 175.378 195.352 175.175 195.039C174.972 194.727 174.832 194.383 174.753 194.008C174.691 193.617 174.66 193.258 174.66 192.93C174.66 192.57 174.707 192.156 174.8 191.688C174.91 191.203 175.089 190.672 175.339 190.094C174.792 190.75 174.238 191.383 173.675 191.992C173.113 192.586 172.558 193.117 172.011 193.586C171.48 194.055 170.964 194.43 170.464 194.711C169.964 194.992 169.511 195.133 169.105 195.133C168.855 195.133 168.597 195.07 168.332 194.945C168.066 194.805 167.832 194.594 167.628 194.312C167.41 194.031 167.23 193.672 167.089 193.234C166.949 192.797 166.878 192.281 166.878 191.688C166.878 190.906 167.027 190.031 167.324 189.062C167.621 188.094 168.003 187.117 168.472 186.133C168.925 185.133 169.425 184.164 169.972 183.227C170.535 182.273 171.074 181.422 171.589 180.672C172.105 179.922 172.558 179.305 172.949 178.82C173.355 178.336 173.636 178.062 173.792 178C173.824 177.984 173.902 177.969 174.027 177.953C174.152 177.938 174.308 177.938 174.496 177.953C174.683 177.953 174.886 177.984 175.105 178.047C175.339 178.109 175.574 178.219 175.808 178.375C176.011 178.531 176.152 178.648 176.23 178.727C176.308 178.805 176.363 178.883 176.394 178.961C176.472 179.102 176.496 179.219 176.464 179.312C176.449 179.406 176.425 179.484 176.394 179.547C176.347 179.641 176.175 179.891 175.878 180.297C175.597 180.703 175.246 181.211 174.824 181.82C174.417 182.43 173.98 183.117 173.511 183.883C173.058 184.633 172.628 185.398 172.222 186.18C171.832 186.961 171.503 187.734 171.238 188.5C170.988 189.25 170.863 189.93 170.863 190.539C170.863 190.852 170.917 191.07 171.027 191.195C171.136 191.32 171.277 191.383 171.449 191.383C171.839 191.383 172.285 191.211 172.785 190.867C173.3 190.508 173.832 190.039 174.378 189.461C174.925 188.867 175.472 188.195 176.019 187.445C176.566 186.68 177.089 185.883 177.589 185.055C179.027 182.602 180.121 180.82 180.871 179.711C181.621 178.602 182.082 178.047 182.253 178.047C182.316 178.047 182.433 178.102 182.605 178.211C182.792 178.305 182.988 178.422 183.191 178.562C183.394 178.688 183.574 178.812 183.73 178.938C183.886 179.047 183.964 179.117 183.964 179.148C183.964 179.336 183.863 179.602 183.66 179.945C183.472 180.273 183.191 180.758 182.816 181.398C182.441 182.023 181.98 182.836 181.433 183.836C180.902 184.82 180.292 186.062 179.605 187.562C179.402 188.016 179.199 188.477 178.996 188.945C178.792 189.414 178.613 189.875 178.457 190.328C178.3 190.766 178.167 191.188 178.058 191.594C177.964 192 177.917 192.367 177.917 192.695C177.917 193.242 178.035 193.633 178.269 193.867C178.519 194.102 178.777 194.219 179.042 194.219C179.621 194.219 180.16 194.031 180.66 193.656C181.175 193.266 181.66 192.773 182.113 192.18C182.582 191.57 183.027 190.891 183.449 190.141C183.871 189.391 184.269 188.641 184.644 187.891C184.769 187.641 184.917 187.516 185.089 187.516C185.183 187.516 185.269 187.547 185.347 187.609C185.425 187.672 185.464 187.766 185.464 187.891C185.464 187.938 185.457 187.984 185.441 188.031C185.425 188.078 185.402 188.141 185.371 188.219ZM200.722 163.516C200.722 164.219 200.566 165.078 200.253 166.094C199.957 167.109 199.527 168.242 198.964 169.492C198.417 170.727 197.753 172.062 196.972 173.5C196.191 174.938 195.324 176.43 194.371 177.977C193.433 179.508 192.417 181.07 191.324 182.664C190.23 184.242 189.089 185.805 187.902 187.352C187.855 187.805 187.824 188.25 187.808 188.688C187.808 189.109 187.808 189.516 187.808 189.906C187.808 190.5 187.832 191.039 187.878 191.523C187.925 191.992 188.011 192.406 188.136 192.766C188.277 193.109 188.464 193.375 188.699 193.562C188.933 193.75 189.23 193.844 189.589 193.844C189.886 193.844 190.191 193.742 190.503 193.539C190.832 193.32 191.152 193.039 191.464 192.695C191.777 192.352 192.074 191.961 192.355 191.523C192.652 191.086 192.925 190.648 193.175 190.211C193.425 189.773 193.652 189.352 193.855 188.945C194.058 188.539 194.214 188.188 194.324 187.891C194.402 187.719 194.488 187.617 194.582 187.586C194.691 187.539 194.769 187.516 194.816 187.516C194.91 187.516 194.988 187.555 195.05 187.633C195.113 187.711 195.144 187.812 195.144 187.938C195.144 188 195.113 188.094 195.05 188.219C194.519 189.484 193.949 190.656 193.339 191.734C192.73 192.812 192.105 193.742 191.464 194.523C190.824 195.305 190.183 195.914 189.542 196.352C188.917 196.789 188.324 197.008 187.761 197.008C187.324 197.008 186.902 196.914 186.496 196.727C186.089 196.539 185.722 196.227 185.394 195.789C185.082 195.352 184.832 194.773 184.644 194.055C184.441 193.32 184.339 192.414 184.339 191.336C184.339 189.852 184.496 188.32 184.808 186.742C185.105 185.148 185.503 183.57 186.003 182.008C186.503 180.43 187.066 178.891 187.691 177.391C188.332 175.891 188.98 174.477 189.636 173.148C190.292 171.82 190.933 170.609 191.558 169.516C192.183 168.422 192.738 167.492 193.222 166.727C193.769 165.852 194.3 165.055 194.816 164.336C195.347 163.617 195.847 163.008 196.316 162.508C196.8 161.992 197.261 161.602 197.699 161.336C198.136 161.055 198.55 160.914 198.941 160.914C199.519 160.914 199.957 161.156 200.253 161.641C200.566 162.109 200.722 162.734 200.722 163.516ZM189.003 181.609C188.816 182.312 188.644 182.984 188.488 183.625C188.347 184.266 188.23 184.883 188.136 185.477C189.621 183.305 190.925 181.227 192.05 179.242C193.175 177.258 194.113 175.461 194.863 173.852C195.613 172.227 196.175 170.836 196.55 169.68C196.925 168.508 197.113 167.648 197.113 167.102C197.113 166.789 197.074 166.578 196.996 166.469C196.917 166.344 196.785 166.281 196.597 166.281C196.363 166.281 196.05 166.531 195.66 167.031C195.269 167.516 194.839 168.164 194.371 168.977C193.902 169.789 193.41 170.727 192.894 171.789C192.378 172.836 191.878 173.93 191.394 175.07C190.91 176.211 190.457 177.352 190.035 178.492C189.613 179.617 189.269 180.656 189.003 181.609ZM207.542 188.219C206.98 189.375 206.324 190.469 205.574 191.5C204.824 192.531 204.011 193.438 203.136 194.219C202.277 194.984 201.363 195.594 200.394 196.047C199.441 196.5 198.48 196.727 197.511 196.727C196.808 196.727 196.183 196.578 195.636 196.281C195.089 196 194.628 195.609 194.253 195.109C193.878 194.609 193.597 194.023 193.41 193.352C193.222 192.68 193.128 191.961 193.128 191.195C193.128 189.93 193.3 188.711 193.644 187.539C193.988 186.367 194.441 185.273 195.003 184.258C195.566 183.242 196.207 182.312 196.925 181.469C197.644 180.625 198.371 179.906 199.105 179.312C199.839 178.703 200.55 178.234 201.238 177.906C201.941 177.578 202.55 177.414 203.066 177.414C203.457 177.414 203.8 177.492 204.097 177.648C204.41 177.805 204.667 178.016 204.871 178.281C205.074 178.531 205.222 178.812 205.316 179.125C205.425 179.438 205.48 179.75 205.48 180.062C205.48 181.016 205.23 182.008 204.73 183.039C204.23 184.055 203.574 185.023 202.761 185.945C201.949 186.852 201.035 187.672 200.019 188.406C199.003 189.125 197.972 189.656 196.925 190C196.925 190.578 196.98 191.125 197.089 191.641C197.214 192.141 197.394 192.586 197.628 192.977C197.878 193.352 198.191 193.656 198.566 193.891C198.941 194.109 199.386 194.219 199.902 194.219C200.417 194.219 200.941 194.117 201.472 193.914C202.003 193.695 202.55 193.344 203.113 192.859C203.691 192.359 204.285 191.703 204.894 190.891C205.503 190.078 206.144 189.078 206.816 187.891C206.972 187.641 207.113 187.516 207.238 187.516C207.347 187.516 207.441 187.547 207.519 187.609C207.597 187.672 207.636 187.766 207.636 187.891C207.636 187.984 207.605 188.094 207.542 188.219ZM202.316 180.109C201.863 180.109 201.355 180.375 200.792 180.906C200.246 181.438 199.714 182.125 199.199 182.969C198.683 183.797 198.214 184.727 197.792 185.758C197.386 186.773 197.113 187.773 196.972 188.758C197.738 188.398 198.496 187.953 199.246 187.422C200.011 186.875 200.691 186.273 201.285 185.617C201.894 184.961 202.386 184.266 202.761 183.531C203.136 182.781 203.324 182.023 203.324 181.258C203.324 180.945 203.238 180.68 203.066 180.461C202.894 180.227 202.644 180.109 202.316 180.109ZM222.8 163.516C222.8 164.219 222.644 165.078 222.332 166.094C222.035 167.109 221.605 168.242 221.042 169.492C220.496 170.727 219.832 172.062 219.05 173.5C218.269 174.938 217.402 176.43 216.449 177.977C215.511 179.508 214.496 181.07 213.402 182.664C212.308 184.242 211.167 185.805 209.98 187.352C209.933 187.805 209.902 188.25 209.886 188.688C209.886 189.109 209.886 189.516 209.886 189.906C209.886 190.5 209.91 191.039 209.957 191.523C210.003 191.992 210.089 192.406 210.214 192.766C210.355 193.109 210.542 193.375 210.777 193.562C211.011 193.75 211.308 193.844 211.667 193.844C211.964 193.844 212.269 193.742 212.582 193.539C212.91 193.32 213.23 193.039 213.542 192.695C213.855 192.352 214.152 191.961 214.433 191.523C214.73 191.086 215.003 190.648 215.253 190.211C215.503 189.773 215.73 189.352 215.933 188.945C216.136 188.539 216.292 188.188 216.402 187.891C216.48 187.719 216.566 187.617 216.66 187.586C216.769 187.539 216.847 187.516 216.894 187.516C216.988 187.516 217.066 187.555 217.128 187.633C217.191 187.711 217.222 187.812 217.222 187.938C217.222 188 217.191 188.094 217.128 188.219C216.597 189.484 216.027 190.656 215.417 191.734C214.808 192.812 214.183 193.742 213.542 194.523C212.902 195.305 212.261 195.914 211.621 196.352C210.996 196.789 210.402 197.008 209.839 197.008C209.402 197.008 208.98 196.914 208.574 196.727C208.167 196.539 207.8 196.227 207.472 195.789C207.16 195.352 206.91 194.773 206.722 194.055C206.519 193.32 206.417 192.414 206.417 191.336C206.417 189.852 206.574 188.32 206.886 186.742C207.183 185.148 207.582 183.57 208.082 182.008C208.582 180.43 209.144 178.891 209.769 177.391C210.41 175.891 211.058 174.477 211.714 173.148C212.371 171.82 213.011 170.609 213.636 169.516C214.261 168.422 214.816 167.492 215.3 166.727C215.847 165.852 216.378 165.055 216.894 164.336C217.425 163.617 217.925 163.008 218.394 162.508C218.878 161.992 219.339 161.602 219.777 161.336C220.214 161.055 220.628 160.914 221.019 160.914C221.597 160.914 222.035 161.156 222.332 161.641C222.644 162.109 222.8 162.734 222.8 163.516ZM211.082 181.609C210.894 182.312 210.722 182.984 210.566 183.625C210.425 184.266 210.308 184.883 210.214 185.477C211.699 183.305 213.003 181.227 214.128 179.242C215.253 177.258 216.191 175.461 216.941 173.852C217.691 172.227 218.253 170.836 218.628 169.68C219.003 168.508 219.191 167.648 219.191 167.102C219.191 166.789 219.152 166.578 219.074 166.469C218.996 166.344 218.863 166.281 218.675 166.281C218.441 166.281 218.128 166.531 217.738 167.031C217.347 167.516 216.917 168.164 216.449 168.977C215.98 169.789 215.488 170.727 214.972 171.789C214.457 172.836 213.957 173.93 213.472 175.07C212.988 176.211 212.535 177.352 212.113 178.492C211.691 179.617 211.347 180.656 211.082 181.609ZM229.621 188.219C229.058 189.375 228.402 190.469 227.652 191.5C226.902 192.531 226.089 193.438 225.214 194.219C224.355 194.984 223.441 195.594 222.472 196.047C221.519 196.5 220.558 196.727 219.589 196.727C218.886 196.727 218.261 196.578 217.714 196.281C217.167 196 216.707 195.609 216.332 195.109C215.957 194.609 215.675 194.023 215.488 193.352C215.3 192.68 215.207 191.961 215.207 191.195C215.207 189.93 215.378 188.711 215.722 187.539C216.066 186.367 216.519 185.273 217.082 184.258C217.644 183.242 218.285 182.312 219.003 181.469C219.722 180.625 220.449 179.906 221.183 179.312C221.917 178.703 222.628 178.234 223.316 177.906C224.019 177.578 224.628 177.414 225.144 177.414C225.535 177.414 225.878 177.492 226.175 177.648C226.488 177.805 226.746 178.016 226.949 178.281C227.152 178.531 227.3 178.812 227.394 179.125C227.503 179.438 227.558 179.75 227.558 180.062C227.558 181.016 227.308 182.008 226.808 183.039C226.308 184.055 225.652 185.023 224.839 185.945C224.027 186.852 223.113 187.672 222.097 188.406C221.082 189.125 220.05 189.656 219.003 190C219.003 190.578 219.058 191.125 219.167 191.641C219.292 192.141 219.472 192.586 219.707 192.977C219.957 193.352 220.269 193.656 220.644 193.891C221.019 194.109 221.464 194.219 221.98 194.219C222.496 194.219 223.019 194.117 223.55 193.914C224.082 193.695 224.628 193.344 225.191 192.859C225.769 192.359 226.363 191.703 226.972 190.891C227.582 190.078 228.222 189.078 228.894 187.891C229.05 187.641 229.191 187.516 229.316 187.516C229.425 187.516 229.519 187.547 229.597 187.609C229.675 187.672 229.714 187.766 229.714 187.891C229.714 187.984 229.683 188.094 229.621 188.219ZM224.394 180.109C223.941 180.109 223.433 180.375 222.871 180.906C222.324 181.438 221.792 182.125 221.277 182.969C220.761 183.797 220.292 184.727 219.871 185.758C219.464 186.773 219.191 187.773 219.05 188.758C219.816 188.398 220.574 187.953 221.324 187.422C222.089 186.875 222.769 186.273 223.363 185.617C223.972 184.961 224.464 184.266 224.839 183.531C225.214 182.781 225.402 182.023 225.402 181.258C225.402 180.945 225.316 180.68 225.144 180.461C224.972 180.227 224.722 180.109 224.394 180.109Z" fill="black"/>
<path d="M375.562 192.219C375.156 193.156 374.679 194.102 374.132 195.055C373.601 195.992 373.007 196.836 372.351 197.586C371.695 198.336 370.984 198.953 370.218 199.438C369.453 199.906 368.64 200.141 367.781 200.141C367.14 200.141 366.625 200.039 366.234 199.836C365.859 199.617 365.57 199.352 365.367 199.039C365.164 198.727 365.023 198.383 364.945 198.008C364.882 197.617 364.851 197.258 364.851 196.93C364.851 196.57 364.898 196.156 364.992 195.688C365.101 195.203 365.281 194.672 365.531 194.094C364.984 194.75 364.429 195.383 363.867 195.992C363.304 196.586 362.75 197.117 362.203 197.586C361.671 198.055 361.156 198.43 360.656 198.711C360.156 198.992 359.703 199.133 359.296 199.133C359.046 199.133 358.789 199.07 358.523 198.945C358.257 198.805 358.023 198.594 357.82 198.312C357.601 198.031 357.421 197.672 357.281 197.234C357.14 196.797 357.07 196.281 357.07 195.688C357.07 194.906 357.218 194.031 357.515 193.062C357.812 192.094 358.195 191.117 358.664 190.133C359.117 189.133 359.617 188.164 360.164 187.227C360.726 186.273 361.265 185.422 361.781 184.672C362.296 183.922 362.75 183.305 363.14 182.82C363.546 182.336 363.828 182.062 363.984 182C364.015 181.984 364.093 181.969 364.218 181.953C364.343 181.938 364.5 181.938 364.687 181.953C364.875 181.953 365.078 181.984 365.296 182.047C365.531 182.109 365.765 182.219 366 182.375C366.203 182.531 366.343 182.648 366.421 182.727C366.5 182.805 366.554 182.883 366.585 182.961C366.664 183.102 366.687 183.219 366.656 183.312C366.64 183.406 366.617 183.484 366.585 183.547C366.539 183.641 366.367 183.891 366.07 184.297C365.789 184.703 365.437 185.211 365.015 185.82C364.609 186.43 364.171 187.117 363.703 187.883C363.25 188.633 362.82 189.398 362.414 190.18C362.023 190.961 361.695 191.734 361.429 192.5C361.179 193.25 361.054 193.93 361.054 194.539C361.054 194.852 361.109 195.07 361.218 195.195C361.328 195.32 361.468 195.383 361.64 195.383C362.031 195.383 362.476 195.211 362.976 194.867C363.492 194.508 364.023 194.039 364.57 193.461C365.117 192.867 365.664 192.195 366.21 191.445C366.757 190.68 367.281 189.883 367.781 189.055C369.218 186.602 370.312 184.82 371.062 183.711C371.812 182.602 372.273 182.047 372.445 182.047C372.507 182.047 372.625 182.102 372.796 182.211C372.984 182.305 373.179 182.422 373.382 182.562C373.585 182.688 373.765 182.812 373.921 182.938C374.078 183.047 374.156 183.117 374.156 183.148C374.156 183.336 374.054 183.602 373.851 183.945C373.664 184.273 373.382 184.758 373.007 185.398C372.632 186.023 372.171 186.836 371.625 187.836C371.093 188.82 370.484 190.062 369.796 191.562C369.593 192.016 369.39 192.477 369.187 192.945C368.984 193.414 368.804 193.875 368.648 194.328C368.492 194.766 368.359 195.188 368.25 195.594C368.156 196 368.109 196.367 368.109 196.695C368.109 197.242 368.226 197.633 368.46 197.867C368.71 198.102 368.968 198.219 369.234 198.219C369.812 198.219 370.351 198.031 370.851 197.656C371.367 197.266 371.851 196.773 372.304 196.18C372.773 195.57 373.218 194.891 373.64 194.141C374.062 193.391 374.46 192.641 374.835 191.891C374.96 191.641 375.109 191.516 375.281 191.516C375.375 191.516 375.46 191.547 375.539 191.609C375.617 191.672 375.656 191.766 375.656 191.891C375.656 191.938 375.648 191.984 375.632 192.031C375.617 192.078 375.593 192.141 375.562 192.219ZM392.531 192.219C391.984 193.453 391.382 194.617 390.726 195.711C390.085 196.789 389.414 197.734 388.71 198.547C388.007 199.344 387.289 199.977 386.554 200.445C385.82 200.914 385.093 201.148 384.375 201.148C383.875 201.148 383.437 201.047 383.062 200.844C382.703 200.641 382.398 200.359 382.148 200C381.914 199.641 381.734 199.211 381.609 198.711C381.5 198.211 381.445 197.664 381.445 197.07C381.445 196.258 381.601 195.367 381.914 194.398C382.242 193.414 382.648 192.414 383.132 191.398C383.632 190.383 384.179 189.383 384.773 188.398C385.382 187.414 385.968 186.5 386.531 185.656C386.14 185.922 385.687 186.258 385.171 186.664C384.671 187.07 384.14 187.516 383.578 188C383.031 188.484 382.468 189 381.89 189.547C381.312 190.078 380.765 190.609 380.25 191.141C379.734 191.656 379.257 192.156 378.82 192.641C378.382 193.125 378.023 193.562 377.742 193.953C376.882 195.125 376.179 196.18 375.632 197.117C375.085 198.055 374.656 198.82 374.343 199.414C374.125 199.852 373.906 200.148 373.687 200.305C373.468 200.461 373.242 200.539 373.007 200.539C372.804 200.539 372.593 200.477 372.375 200.352C372.156 200.242 372.046 200.031 372.046 199.719C372.046 199.531 372.132 199.148 372.304 198.57C372.476 197.992 372.71 197.305 373.007 196.508C373.289 195.695 373.617 194.805 373.992 193.836C374.351 192.867 374.734 191.891 375.14 190.906C375.531 189.906 375.921 188.938 376.312 188C376.703 187.047 377.062 186.195 377.39 185.445C377.718 184.695 378 184.078 378.234 183.594C378.468 183.094 378.625 182.805 378.703 182.727C378.906 182.523 379.234 182.484 379.687 182.609C380.156 182.734 380.617 182.93 381.07 183.195C381.289 183.336 381.453 183.477 381.562 183.617C381.687 183.758 381.781 183.891 381.843 184.016C381.875 184.094 381.882 184.164 381.867 184.227C381.851 184.289 381.828 184.344 381.796 184.391C381.75 184.438 381.57 184.719 381.257 185.234C380.945 185.734 380.562 186.383 380.109 187.18C379.656 187.961 379.156 188.844 378.609 189.828C378.062 190.812 377.539 191.805 377.039 192.805C377.789 191.773 378.515 190.852 379.218 190.039C379.921 189.227 380.546 188.523 381.093 187.93C381.718 187.258 382.32 186.656 382.898 186.125C384.57 184.656 385.867 183.562 386.789 182.844C387.726 182.125 388.445 181.766 388.945 181.766C389.148 181.766 389.359 181.836 389.578 181.977C389.812 182.102 390.023 182.273 390.21 182.492C390.398 182.711 390.554 182.961 390.679 183.242C390.804 183.523 390.867 183.812 390.867 184.109C390.867 184.406 390.726 184.812 390.445 185.328C390.164 185.828 389.812 186.422 389.39 187.109C388.968 187.781 388.507 188.531 388.007 189.359C387.507 190.172 387.046 191.031 386.625 191.938C386.203 192.844 385.851 193.781 385.57 194.75C385.289 195.719 385.148 196.688 385.148 197.656C385.148 198.109 385.21 198.5 385.335 198.828C385.476 199.156 385.703 199.32 386.015 199.32C386.343 199.32 386.75 199.094 387.234 198.641C387.734 198.188 388.25 197.602 388.781 196.883C389.328 196.164 389.867 195.367 390.398 194.492C390.945 193.602 391.421 192.734 391.828 191.891C391.953 191.641 392.093 191.516 392.25 191.516C392.328 191.516 392.406 191.547 392.484 191.609C392.578 191.656 392.625 191.75 392.625 191.891C392.625 191.984 392.593 192.094 392.531 192.219ZM408.21 192.219C407.882 193.094 407.468 194.008 406.968 194.961C406.484 195.914 405.945 196.789 405.351 197.586C404.757 198.367 404.125 199.016 403.453 199.531C402.781 200.031 402.109 200.281 401.437 200.281C400.984 200.281 400.609 200.172 400.312 199.953C400.015 199.719 399.773 199.438 399.585 199.109C399.414 198.766 399.289 198.398 399.21 198.008C399.132 197.617 399.093 197.258 399.093 196.93C399.093 196.43 399.148 195.852 399.257 195.195C399.382 194.539 399.617 193.789 399.96 192.945C399.429 193.664 398.867 194.398 398.273 195.148C397.695 195.883 397.101 196.547 396.492 197.141C395.898 197.734 395.296 198.227 394.687 198.617C394.093 198.992 393.531 199.18 393 199.18C392.75 199.18 392.484 199.117 392.203 198.992C391.921 198.852 391.664 198.656 391.429 198.406C391.179 198.141 390.976 197.82 390.82 197.445C390.664 197.055 390.585 196.609 390.585 196.109C390.585 195.266 390.781 194.336 391.171 193.32C391.562 192.289 392.054 191.258 392.648 190.227C393.257 189.195 393.929 188.195 394.664 187.227C395.398 186.258 396.109 185.414 396.796 184.695C397.421 184.023 398.007 183.453 398.554 182.984C399.117 182.516 399.64 182.141 400.125 181.859C400.625 181.562 401.093 181.352 401.531 181.227C401.968 181.086 402.39 181.008 402.796 180.992C403.171 180.992 403.484 181.039 403.734 181.133C403.984 181.211 404.179 181.32 404.32 181.461C404.46 181.602 404.554 181.766 404.601 181.953C404.664 182.141 404.695 182.336 404.695 182.539C404.695 182.758 404.632 183.039 404.507 183.383C404.382 183.727 404.21 184.07 403.992 184.414C403.773 184.758 403.515 185.055 403.218 185.305C402.937 185.539 402.632 185.656 402.304 185.656C402.179 185.656 402.101 185.609 402.07 185.516C402.039 185.422 402.023 185.305 402.023 185.164C402.023 184.898 402.054 184.586 402.117 184.227C402.179 183.867 402.21 183.555 402.21 183.289C402.21 183.055 402.179 182.891 402.117 182.797C402.07 182.688 401.96 182.633 401.789 182.633C401.382 182.805 400.945 183.141 400.476 183.641C400.023 184.125 399.57 184.703 399.117 185.375C398.664 186.031 398.226 186.75 397.804 187.531C397.398 188.297 397.031 189.062 396.703 189.828C396.39 190.578 396.14 191.297 395.953 191.984C395.765 192.656 395.671 193.219 395.671 193.672C395.671 194 395.718 194.258 395.812 194.445C395.906 194.633 396.023 194.727 396.164 194.727C396.273 194.727 396.445 194.625 396.679 194.422C396.914 194.219 397.179 193.953 397.476 193.625C397.789 193.297 398.109 192.93 398.437 192.523C398.765 192.102 399.085 191.688 399.398 191.281C399.726 190.875 400.023 190.492 400.289 190.133C400.554 189.773 400.765 189.477 400.921 189.242C401.328 188.648 401.609 188.188 401.765 187.859C401.937 187.531 402.117 187.367 402.304 187.367C402.382 187.367 402.492 187.43 402.632 187.555C402.789 187.68 402.937 187.828 403.078 188C403.234 188.156 403.367 188.32 403.476 188.492C403.585 188.664 403.64 188.789 403.64 188.867C403.64 189.086 403.539 189.398 403.335 189.805C403.132 190.195 402.851 190.828 402.492 191.703C402.085 192.641 401.781 193.516 401.578 194.328C401.39 195.141 401.296 195.859 401.296 196.484C401.296 196.703 401.312 196.922 401.343 197.141C401.375 197.359 401.429 197.562 401.507 197.75C401.585 197.922 401.695 198.07 401.835 198.195C401.976 198.305 402.164 198.359 402.398 198.359C402.773 198.359 403.156 198.211 403.546 197.914C403.953 197.602 404.335 197.211 404.695 196.742C405.07 196.273 405.421 195.773 405.75 195.242C406.078 194.695 406.367 194.18 406.617 193.695C406.867 193.211 407.062 192.805 407.203 192.477C407.359 192.133 407.453 191.938 407.484 191.891C407.609 191.641 407.757 191.516 407.929 191.516C408.023 191.516 408.109 191.547 408.187 191.609C408.265 191.672 408.304 191.766 408.304 191.891C408.304 191.984 408.273 192.094 408.21 192.219Z" fill="black"/>
</svg>
